<?xml version="1.0" encoding="UTF-8"?>
<svg version="1.1" viewBox="0 0 1167 1134.8" xmlns="http://www.w3.org/2000/svg">
 <!-- Generator: Adobe Illustrator 29.0.0, SVG Export Plug-In . SVG Version: 2.1.0 Build 186)  -->
 <defs>
  <style>.st0 {
        fill: url(#radial-gradient);
      }

      .st1, .st2 {
        fill: #fff;
      }

      .st1, .st3 {
        opacity: .7;
      }

      .st2, .st4 {
        stroke: #fff;
      }

      .st2, .st4, .st5, .st6 {
        stroke-miterlimit: 10;
      }

      .st2, .st5 {
        stroke-width: .5px;
      }

      .st7, .st8 {
        opacity: .7;
      }

      .st7, .st9 {
        fill: #c19a6b;
      }

      .st4, .st6 {
        fill: none;
        stroke-width: 1.3px;
      }

      .st5 {
        fill: #3a1f16;
      }

      .st5, .st6 {
        stroke: #3a1f16;
      }

      .st10 {
        fill: url(#radial-gradient1);
      }

      .st11 {
        fill: #ddc2ac;
      }

      [id$="-icon"] {
        transition: transform 700ms cubic-bezier(.47,1.64,.41,.8);
        transform-origin: 583.8px 566.08px;
        pointer-events: none;
      }
      [id$="-icon"] .inner {
        transition: transform 700ms cubic-bezier(.47,1.64,.41,.8);
        transform-origin: center;
        transform-box: fill-box;
      }
      [id$="-ring"] {
        transition: filter .3s;
        cursor: pointer;
      }
      [id$="-ring"]:hover {
        filter: brightness(1.1);
      }      [id$="-text"] {
        transition: transform 0.3s, font-weight 0.3s;
        transform-origin: center;
      }
      svg:has(#impacts-ring:hover) #impacts-text { font-weight: 900; }
      svg:has(#political-economy-ring:hover) #political-economy-text { font-weight: 900; }
      svg:has(#solutions-ring:hover) #solutions-text { font-weight: 900; }
      svg:has(#economics-ring:hover) #economics-text { font-weight: 900; }
      svg:has(#science-ring:hover) #science-text { font-weight: 900; }
      svg:has(#you-ring:hover) #you-text { font-weight: 900; }
      svg:has(#governance-ring:hover) #governance-text { font-weight: 900; }
      svg:has(#energy-ring:hover) #energy-text { font-weight: 900; }
      <!-- svg:has(#science-ring:hover) #science-icon { transform: rotate(150deg); }
      svg:has(#science-ring:hover) #science-icon .inner { transform: rotate(-150deg); } -->
      svg:has(#impacts-ring:hover) #impacts-icon { transform: rotate(130deg); }
      svg:has(#impacts-ring:hover) #impacts-icon .inner { transform: rotate(-130deg); }
      svg:has(#economics-ring:hover) #economics-icon { transform: rotate(143deg); }
      svg:has(#economics-ring:hover) #economics-icon .inner { transform: rotate(-143deg); }
      svg:has(#political-economy-ring:hover) #political-economy-icon { transform: rotate(140deg); }
      svg:has(#political-economy-ring:hover) #political-economy-icon .inner { transform: rotate(-140deg); }
      svg:has(#governance-ring:hover) #governance-icon { transform: rotate(157deg); }
      svg:has(#governance-ring:hover) #governance-icon .inner { transform: rotate(-157deg); }
      svg:has(#solutions-ring:hover) #solutions-icon { transform: rotate(163deg); }
      svg:has(#solutions-ring:hover) #solutions-icon .inner { transform: rotate(-163deg); }
      svg:has(#energy-ring:hover) #energy-icon { transform: rotate(168deg); }
      svg:has(#energy-ring:hover) #energy-icon .inner { transform: rotate(-168deg); }
      svg:has(#you-ring:hover) #you-icon { transform: rotate(171deg); }
      svg:has(#you-ring:hover) #you-icon .inner { transform: rotate(-171deg); }
    </style>
  <radialGradient id="radial-gradient" cx="583.8" cy="566.08" r="528.6" gradientUnits="userSpaceOnUse">
   <stop stop-color="#7b5222" offset=".96"/>
   <stop stop-color="#6a4820" offset=".96"/>
   <stop stop-color="#412f1b" offset=".98"/>
   <stop stop-color="#271f18" offset=".99"/>
   <stop stop-color="#1e1a17" offset=".99"/>
  </radialGradient>
  <radialGradient id="radial-gradient1" cx="584.96" cy="562.13" r="493.97" gradientUnits="userSpaceOnUse">
   <stop stop-color="#7d4c2b" offset="0"/>
   <stop stop-color="#875530" offset="0"/>
   <stop stop-color="#a57040" offset=".03"/>
   <stop stop-color="#b7814a" offset=".05"/>
   <stop stop-color="#be874e" offset=".07"/>
   <stop stop-color="#e2ab68" offset=".11"/>
   <stop stop-color="#dea765" offset=".13"/>
   <stop stop-color="#d39c5d" offset=".15"/>
   <stop stop-color="#c18a50" offset=".17"/>
   <stop stop-color="#be874e" offset=".18"/>
   <stop stop-color="#c7925a" offset=".19"/>
   <stop stop-color="#daaa73" offset=".22"/>
   <stop stop-color="#e2b37d" offset=".24"/>
   <stop stop-color="#e0b07a" offset=".27"/>
   <stop stop-color="#d9a872" offset=".28"/>
   <stop stop-color="#ce9b63" offset=".29"/>
   <stop stop-color="#bf884f" offset=".31"/>
   <stop stop-color="#be874e" offset=".31"/>
   <stop stop-color="#c38d55" offset=".31"/>
   <stop stop-color="#d4a26b" offset=".34"/>
   <stop stop-color="#deae78" offset=".36"/>
   <stop stop-color="#e2b37d" offset=".38"/>
   <stop stop-color="#dfaf79" offset=".4"/>
   <stop stop-color="#d7a56e" offset=".42"/>
   <stop stop-color="#ca955c" offset=".43"/>
   <stop stop-color="#c0894f" offset=".44"/>
   <stop stop-color="#c18a50" offset=".45"/>
   <stop stop-color="#d9a870" offset=".49"/>
   <stop stop-color="#e3b47d" offset=".52"/>
   <stop stop-color="#dfae77" offset=".53"/>
   <stop stop-color="#d3a068" offset=".54"/>
   <stop stop-color="#c38b51" offset=".54"/>
   <stop stop-color="#e3b47d" offset=".58"/>
   <stop stop-color="#e1b17a" offset=".6"/>
   <stop stop-color="#dcaa72" offset=".62"/>
   <stop stop-color="#d39d63" offset=".63"/>
   <stop stop-color="#c98f53" offset=".64"/>
   <stop stop-color="#cb9357" offset=".64"/>
   <stop stop-color="#d8a56c" offset=".66"/>
   <stop stop-color="#e0b078" offset=".67"/>
   <stop stop-color="#e3b47d" offset=".68"/>
   <stop stop-color="#e1b17a" offset=".7"/>
   <stop stop-color="#dbaa73" offset=".71"/>
   <stop stop-color="#d19e67" offset=".71"/>
   <stop stop-color="#c38d55" offset=".72"/>
   <stop stop-color="#c18a52" offset=".72"/>
   <stop stop-color="#ca955d" offset=".72"/>
   <stop stop-color="#d8a66f" offset=".73"/>
   <stop stop-color="#e1b079" offset=".75"/>
   <stop stop-color="#e4b47d" offset=".76"/>
   <stop stop-color="#e1b17a" offset=".77"/>
   <stop stop-color="#dba871" offset=".77"/>
   <stop stop-color="#cf9a63" offset=".78"/>
   <stop stop-color="#c18951" offset=".78"/>
   <stop stop-color="#d09c65" offset=".79"/>
   <stop stop-color="#dba973" offset=".79"/>
   <stop stop-color="#e2b17b" offset=".79"/>
   <stop stop-color="#e4b47e" offset=".8"/>
   <stop stop-color="#e1b07a" offset=".81"/>
   <stop stop-color="#d8a670" offset=".82"/>
   <stop stop-color="#ca955e" offset=".82"/>
   <stop stop-color="#c18952" offset=".83"/>
   <stop stop-color="#c68f58" offset=".83"/>
   <stop stop-color="#d39f69" offset=".83"/>
   <stop stop-color="#ddab75" offset=".83"/>
   <stop stop-color="#e2b27c" offset=".84"/>
   <stop stop-color="#e4b47e" offset=".85"/>
   <stop stop-color="#c28953" offset=".87"/>
   <stop stop-color="#cd9761" offset=".87"/>
   <stop stop-color="#daa771" offset=".88"/>
   <stop stop-color="#e1b17b" offset=".88"/>
   <stop stop-color="#e4b47e" offset=".89"/>
   <stop stop-color="#dfae78" offset=".89"/>
   <stop stop-color="#d39e68" offset=".9"/>
   <stop stop-color="#c28953" offset=".91"/>
   <stop stop-color="#c28a54" offset=".91"/>
   <stop stop-color="#cc9964" offset=".91"/>
   <stop stop-color="#d3a36e" offset=".92"/>
   <stop stop-color="#d5a672" offset=".92"/>
   <stop stop-color="#d3a470" offset=".93"/>
   <stop stop-color="#cf9e69" offset=".94"/>
   <stop stop-color="#c8935d" offset=".94"/>
   <stop stop-color="#c28a53" offset=".94"/>
   <stop stop-color="#c29564" offset=".95"/>
   <stop stop-color="#c3996b" offset=".96"/>
   <stop stop-color="#b99670" offset=".96"/>
   <stop stop-color="#ac9377" offset=".96"/>
   <stop stop-color="#a8927a" offset=".96"/>
   <stop stop-color="#baa288" offset=".97"/>
   <stop stop-color="#d7bc9d" offset=".97"/>
   <stop stop-color="#eccead" offset=".98"/>
   <stop stop-color="#f8d9b6" offset=".98"/>
   <stop stop-color="#fdddba" offset=".98"/>
   <stop stop-color="#574032" offset="1"/>
  </radialGradient>
 </defs>
 <path class="st0" d="M604.17,1094.61c-2,0-3.86-.46-5.65-.91-1.5-.37-2.91-.72-4.15-.72h-.25c-2.71,0-4.95-1.61-6.93-3.04-1.09-.79-2.59-1.86-3.27-1.86-1.23,0-2.65.42-4.15.86-1.77.52-3.78,1.11-5.91,1.11h-.22c-2.09-.04-4.01-.5-5.87-.94-1.54-.36-2.99-.71-4.35-.76h0c-.98,0-2.34.67-3.66,1.31-1.87.91-3.98,1.94-6.34,1.94-.15,0-.47-.01-.47-.01-1.09,0-2.47.58-3.8,1.14-1.82.77-3.89,1.64-6.12,1.64h0c-.21,0-.43,0-.64-.02-2.78-.22-4.91-2.12-6.79-3.79-.96-.85-2.4-2.14-3.07-2.21h0c-.85,0-2.32.81-3.51,1.47-1.91,1.05-4.08,2.25-6.47,2.25-.27,0-.54-.02-.81-.05-2.7-.32-4.76-2.16-6.58-3.79-1-.89-2.36-2.12-3.08-2.21-.2-.03-.41-.04-.61-.04-1.01,0-2.21.27-3.48.55-1.55.35-3.15.7-4.85.7-.57,0-1.12-.04-1.65-.12-2.97-.47-4.88-3.03-6.57-5.3-.7-.94-1.84-2.47-2.45-2.8-.68.18-2.3,1.44-3.28,2.21-2.24,1.75-4.56,3.56-7.23,3.56-.37,0-.72-.04-1.08-.1-2.92-.58-4.75-3.15-6.36-5.41-.68-.96-1.8-2.53-2.4-2.85-.71.13-2.38,1.28-3.4,1.98-2.22,1.52-4.51,3.1-7.04,3.1-.45,0-.9-.05-1.32-.15-3.13-.75-4.64-3.9-6.11-6.95-.56-1.16-1.48-3.07-2.04-3.57-.15-.03-.32-.04-.51-.04-.88,0-2,.27-3.19.56-1.49.36-3.03.73-4.65.73-.86,0-1.63-.1-2.38-.31-1.28-.36-2.57-.7-3.86-1.04-1.99-.53-4.05-1.07-6.08-1.69-1.34-.41-2.84-.6-4.43-.81-1.88-.25-3.82-.5-5.77-1.13-2.66-.86-4.27-3.22-5.69-5.3-.72-1.05-1.8-2.64-2.42-2.85-.09-.03-.25-.07-.53-.07-.84,0-2.04.31-3.2.62-1.54.4-3.13.82-4.78.82-.98,0-1.9-.16-2.72-.46-1.9-.7-3.77-1.49-5.57-2.25-1.33-.56-2.65-1.12-3.99-1.64-2.52-.98-4.03-3.23-5.38-5.21-.78-1.15-1.75-2.58-2.44-2.87-.69-.29-1.67-.32-2.45-.32-.5,0-1,.02-1.5.03-.57.02-1.14.04-1.71.04-1.41,0-3.25-.1-5.01-.87-.31-.14-.8-.21-1.45-.21-.73,0-1.55.08-2.42.17-.99.1-2.01.2-3.06.2-1.6,0-2.95-.26-4.11-.8-2.32-1.07-3.8-3.14-5.11-4.97-.88-1.23-1.79-2.51-2.59-2.9-2.09-1.01-3.63-2.67-4.99-4.13-1.06-1.14-2.06-2.21-3.07-2.72,0,0-.16-.08-.62-.08-.83,0-1.99.24-3.11.47-1.43.3-2.91.6-4.39.6-1.38,0-2.56-.27-3.59-.82-1.29-.69-2.71-1.25-4.22-1.85-1.74-.69-3.54-1.4-5.28-2.37-1.22-.69-2.66-1.2-4.18-1.75-1.8-.65-3.67-1.31-5.43-2.35-2.65-1.56-3.4-4.82-4.07-7.7-.28-1.23-.76-3.29-1.21-3.75-.99-.6-2.05-1.24-3.12-1.87-1.86-1.12-3.72-2.23-5.55-3.41-1.2-.77-2.57-1.39-4.03-2.05-1.7-.77-3.46-1.56-5.14-2.69-.01,0-.29-.18-1.38-.18-.71,0-1.53.07-2.39.15-.96.09-1.96.17-2.95.17-1.33,0-3.29-.14-4.98-1.32-2.41-1.68-3.09-4.71-3.69-7.38-.27-1.2-.72-3.2-1.17-3.61-.94-.68-2.35-1.13-3.83-1.61-1.87-.6-3.98-1.28-5.79-2.65-1.82-1.38-3.04-3.24-4.12-4.89-.86-1.31-1.67-2.54-2.59-3.27-.02-.01-.39-.22-1.83-.22-.63,0-1.29.03-1.95.07-.77.04-1.53.08-2.27.08-1.78,0-4.04-.19-5.82-1.65-2.01-1.65-2.88-4.11-3.64-6.28-.48-1.38-1.03-2.93-1.68-3.48-.8-.68-2.21-1.13-3.71-1.61-1.99-.63-4.24-1.35-6.03-2.94-.96-.85-2.3-1.55-3.72-2.28-1.77-.92-3.61-1.87-5.2-3.34-2.28-2.11-2.26-5.53-2.24-8.55,0-1.28.02-3.43-.31-3.99-1.44-1.37-2.52-3.04-3.56-4.65-.85-1.32-1.66-2.57-2.6-3.51-.46-.36-2.5-.49-3.72-.56-2.73-.17-5.82-.36-7.87-2.48-1.95-2.03-2.23-4.9-2.48-7.43-.12-1.28-.31-3.21-.75-3.68-1.37-1.48-2.43-3.07-3.46-4.61-.88-1.32-1.71-2.57-2.67-3.64-.46-.31-2.54-.43-3.79-.51-2.91-.17-6.21-.37-8.2-2.69-1.81-2.12-1.96-4.97-2.09-7.49-.07-1.28-.17-3.21-.59-3.72-.75-.92-1.99-1.72-3.31-2.56-1.64-1.06-3.5-2.25-4.9-4.03-1.4-1.78-2.13-3.87-2.77-5.72-.51-1.48-1-2.87-1.71-3.81-.79-1.04-1.94-1.98-3.15-2.99-1.51-1.24-3.07-2.52-4.33-4.26-.58-.8-1.94-1.55-3.26-2.28-1.87-1.04-4-2.21-5.4-4.23-1.65-2.37-1.35-5.35-1.08-7.99.12-1.14.33-3.25.02-3.76-.41-.34-2.49-.72-3.74-.95-2.92-.54-6.24-1.15-7.9-3.74-1.08-1.69-2.09-3.44-3.07-5.14-.73-1.28-1.47-2.55-2.23-3.79-.77-1.26-1.7-2.48-2.69-3.77-1.14-1.49-2.32-3.03-3.32-4.74-1.05-1.78-1.69-3.66-2.32-5.48-.53-1.53-1.02-2.97-1.7-4.18-1.47-2.61-.64-5.7.09-8.43.32-1.19.85-3.19.66-3.78-.29-.54-2.03-1.36-3.19-1.9-2.28-1.07-4.87-2.29-6.14-4.78-.49-.96-1.61-1.94-2.81-2.98-1.56-1.36-3.33-2.9-4.37-5.03-.49-1.01-.99-2.02-1.5-3.04-1.04-2.1-2.08-4.21-3.05-6.31-1.35-2.92.21-6.07,1.72-9.12.58-1.17,1.53-3.09,1.58-3.85-.47-.95-1.46-1.94-2.5-2.99-1.44-1.43-3.07-3.06-3.97-5.24-.53-1.29-1.33-2.57-2.18-3.92-1.01-1.61-2.05-3.27-2.79-5.18-.34-.88-1.51-1.92-2.63-2.93-1.63-1.47-3.48-3.13-4.35-5.48-.51-1.38-1.07-2.76-1.64-4.15-.73-1.79-1.49-3.65-2.14-5.53-.68-1.97-.92-3.96-1.15-5.89-.19-1.6-.37-3.11-.79-4.41-.83-2.57-.05-5.18.64-7.49.4-1.35.91-3.02.69-3.73-.3-1-1.25-2.13-2.25-3.33-1.33-1.6-2.85-3.41-3.5-5.72-.57-2.03-.66-4.03-.74-5.97-.07-1.59-.13-3.09-.47-4.39-.57-2.2-.38-4.41-.22-6.36.13-1.56.26-3.02-.02-4.17-.3-1.26-.97-2.59-1.68-3.99-.88-1.74-1.8-3.54-2.25-5.64-.43-1.95-.75-3.91-1.07-5.8-.24-1.44-.48-2.88-.76-4.32-.4-2.03-.39-3.99-.37-5.89.01-1.59.03-3.08-.22-4.44-.24-.47-2.01-1.66-3.06-2.37-2.49-1.67-5.31-3.56-5.79-6.62-.5-3.19,1.9-5.8,4.22-8.32.83-.9,2.16-2.35,2.54-3.12-.53-.64-2.12-1.68-3.1-2.34-2.64-1.74-5.62-3.71-5.99-6.87-.36-3.06,1.83-5.64,3.77-7.91.83-.97,2.21-2.59,2.31-3.23-.1-.95-.79-2.25-1.51-3.62-.96-1.82-2.04-3.87-2.23-6.25-.08-1.03-.77-2.34-1.51-3.72-.98-1.86-2.1-3.96-2.24-6.38-.17-2.87,1.65-5.26,3.24-7.36.69-.91,1.98-2.61,1.98-3.21-.17-.51-1.73-1.93-2.66-2.78-2.19-1.99-4.67-4.25-4.73-7.33-.06-2.98,2.11-5.32,4.03-7.38.84-.91,2.25-2.43,2.36-3.04,0-2.01.08-4.04.16-6.01.06-1.4.11-2.8.14-4.21.03-1.48-.09-2.99-.21-4.58-.14-1.84-.29-3.73-.22-5.7.06-1.47-.06-2.98-.18-4.57-.14-1.85-.29-3.75-.17-5.73.09-1.47.12-2.94.16-4.41.05-1.91.1-3.89.26-5.88.05-.71-.89-2.3-1.57-3.46-1.26-2.13-2.68-4.54-2.42-7.27.31-3.23,3.31-5.16,6.21-7.02,1.09-.7,2.89-1.86,3.34-2.49.02-.87-.55-2.22-1.1-3.52-.88-2.08-1.87-4.43-1.52-6.99.28-2.04.9-3.89,1.5-5.69.5-1.51.98-2.94,1.2-4.31.32-2.04.99-3.88,1.63-5.66.54-1.49,1.05-2.9,1.29-4.26.16-.93-.29-2.41-.72-3.85-.63-2.09-1.35-4.46-.87-6.92.28-1.42.37-2.94.47-4.55.11-1.87.23-3.81.66-5.77.52-2.4,1.11-4.79,1.69-7.18l.7-2.88c.65-2.73,2.89-4.52,4.87-6.1,1-.8,2.5-2,2.67-2.62.49-1.89,1.12-3.69,1.73-5.43.52-1.48,1-2.88,1.41-4.31.18-.62-.53-2.42-.99-3.61-.92-2.36-1.96-5.03-1.15-7.72.67-2.2,2.03-4,3.22-5.58.94-1.25,1.83-2.43,2.19-3.52.68-2.1,1.42-4.17,2.16-6.24.41-1.15.82-2.3,1.23-3.46.31-.88.09-2.42-.12-3.92-.31-2.18-.66-4.64.21-7.01.69-1.87,1.61-3.58,2.5-5.23.76-1.42,1.49-2.76,2.02-4.11,1-2.54,3.3-4.05,5.33-5.38,1.1-.72,2.45-1.6,2.84-2.26-.07-.77-1.06-2.66-1.66-3.8-1.58-3.02-3.21-6.14-1.92-9.09,1.18-2.69,4.02-3.96,6.52-5.07,1.12-.5,3-1.34,3.32-1.86.25-.54-.23-2.53-.52-3.73-.61-2.53-1.3-5.4-.05-7.96,1.37-2.83,4.74-3.75,7.71-4.57,1.22-.34,3.24-.89,3.76-1.36.61-1.23,1.05-2.62,1.52-4.09.57-1.79,1.16-3.65,2.12-5.45.92-1.72,1.96-3.33,2.96-4.89.85-1.33,1.66-2.58,2.38-3.88.35-.62.17-2.44.04-3.77-.24-2.45-.51-5.22.88-7.58,1-1.71,2.18-3.24,3.32-4.72.98-1.28,1.92-2.49,2.68-3.74,1.4-2.27,3.82-3.4,5.95-4.4,1.26-.59,2.82-1.32,3.24-1.98,1.06-1.66,2.21-3.22,3.31-4.73.88-1.2,1.76-2.4,2.6-3.65,1.13-1.69,2.46-3.08,3.74-4.44,1.09-1.15,2.12-2.23,2.93-3.39l1.24-1.78c1.53-2.2,3.05-4.38,4.64-6.57.67-.92,1.08-2.33,1.52-3.81.56-1.9,1.19-4.06,2.59-5.9.37-.49.35-2.54.33-3.76-.03-2.59-.07-5.51,1.68-7.74,1.83-2.31,4.9-2.8,7.62-3.24,1.21-.19,3.23-.52,3.68-.94,1.23-1.49,2.55-2.88,3.83-4.21,1.09-1.14,2.11-2.21,3.08-3.34.56-.65.87-2.26,1.14-3.67.43-2.23.91-4.75,2.63-6.69,1.4-1.57,3.02-2.73,4.59-3.85,1.3-.92,2.52-1.8,3.43-2.79.48-.51.72-2.35.9-3.69.33-2.46.7-5.24,2.61-7.22,1.86-1.93,4.5-2.51,6.83-3.02,1.37-.3,3.08-.67,3.63-1.22,1.72-1.72,3.96-2.53,5.93-3.24,1.46-.53,2.85-1.03,3.58-1.73.77-.74,1.36-2.08,1.98-3.5.83-1.88,1.76-4.02,3.51-5.64,1.77-1.63,4-2.38,5.97-3.03,1.48-.49,2.87-.96,3.65-1.65.58-.52,1.05-2.18,1.43-3.51.65-2.27,1.38-4.85,3.41-6.58,1.77-1.52,3.94-2.26,5.85-2.91,1.48-.5,2.88-.98,3.74-1.69,1.08-.88,2.06-2.02,3.1-3.23,1.24-1.44,2.52-2.92,4.13-4.19.59-.46,1.14-2.13,1.58-3.47.76-2.3,1.61-4.9,3.77-6.53,1.1-.83,2.47-1.24,4.18-1.24,1.55,0,3.18.33,4.76.65,1.27.26,2.59.53,3.5.53.38,0,.52-.05.52-.05.42-.33,1-2.07,1.42-3.34.78-2.36,1.66-5.03,3.93-6.61,1.1-.77,2.13-1.87,3.22-3.04,1.33-1.43,2.71-2.9,4.46-4.07,2.03-1.36,4.41-1.7,6.52-2.01,1.56-.23,3.03-.44,3.88-.98,1.9-1.22,4.04-1.75,5.93-2.21,1.52-.38,2.95-.73,3.97-1.36,1.17-.72,2.28-1.72,3.46-2.79,1.41-1.28,2.87-2.6,4.66-3.65,1.06-.62,2.07-1.7,3.15-2.85,1.32-1.41,2.82-3,4.75-4.09,1.11-.62,2.41-.93,3.97-.93,1.3,0,2.59.21,3.83.4,1.05.17,2.05.33,2.85.33.63,0,.85-.1.89-.12.5-.31,1.29-2.28,1.71-3.33.99-2.48,2.11-5.29,4.7-6.61,1.3-.66,2.59-1.37,3.87-2.08,1.7-.93,3.46-1.9,5.27-2.77,1.33-.65,2.63-1.44,4.01-2.28,1.6-.97,3.25-1.97,5.04-2.8,2.05-.95,4.26-1.17,6.22-1.37,1.57-.16,3.05-.31,4.14-.79.86-.38,1.86-1.58,2.82-2.75,1.4-1.7,2.99-3.62,5.31-4.59,2.07-.86,4.28-1.02,6.23-1.17,1.58-.12,3.08-.23,4.2-.67.79-.31,1.67-.47,2.6-.47,1.81,0,3.57.56,5.27,1.11,1.24.4,2.53.81,3.36.81.21,0,.3-.03.31-.03,1.85-.68,3.69-1.13,5.47-1.56,1.54-.38,3-.73,4.4-1.21,1.36-.47,2.7-1.14,4.12-1.85,1.66-.83,3.37-1.69,5.28-2.31,2.3-.75,4.58-1.43,6.88-2.11l2.92-.87c1.04-.32,2.19-1.22,3.41-2.18,1.6-1.26,3.4-2.68,5.67-3.32,1.59-.45,3.16-.5,4.2-.5.68,0,1.36.02,2.05.05.6.02,1.21.05,1.81.05,1.02,0,1.78-.08,2.41-.24.88-.23,2.03-1.27,3.14-2.29,1.63-1.49,3.49-3.18,5.96-3.77.5-.12,1.03-.18,1.57-.18,2.19,0,4.28,1,6.12,1.88,1.18.56,2.65,1.27,3.42,1.27,1.42-.29,2.77-.9,4.2-1.54,1.75-.78,3.55-1.59,5.62-1.99,1.39-.28,2.81-.78,4.3-1.31,1.76-.63,3.59-1.27,5.58-1.63.54-.2,1.78-1.86,2.52-2.85,1.7-2.27,3.63-4.84,6.59-5.3,1.96-.31,3.95-.51,5.88-.71,1.49-.15,2.98-.31,4.45-.51.26-.04.53-.05.8-.05,2.66,0,4.89,1.68,7.05,3.31,1,.75,2.66,2,3.29,2.05.97-.12,2.24-.85,3.59-1.64,1.81-1.05,3.86-2.23,6.26-2.47,1.24-.12,2.64-.66,4.11-1.22,1.79-.69,3.82-1.46,6.01-1.63.19-.01.38-.02.57-.02,2.39,0,4.53,1.12,6.42,2.11,1.25.66,2.67,1.4,3.51,1.4.66-.04,2.25-1.46,3.1-2.22,1.95-1.74,4.16-3.72,7.01-3.83,1.49-.06,2.98-.19,4.57-.33,1.89-.17,3.84-.34,5.8-.38h.2c2.22,0,4.3.73,6.13,1.37,1.5.53,2.91,1.02,4.06,1.02,2.08,0,4.02.4,5.9.79,1.57.32,3.05.63,4.42.65h0c1.25,0,2.64-.44,4.11-.9,1.77-.55,3.77-1.18,5.88-1.18.14,0,.27,0,.41,0,2.2.09,4.25.78,6.07,1.39,1.5.51,2.92.98,4.17,1.06,2.04.12,3.95.58,5.79,1.03,1.56.38,3.02.74,4.42.84h0c.77,0,2.25-.9,3.44-1.63,1.96-1.19,4.17-2.54,6.66-2.54.22,0,.43,0,.65.03,2.1.2,4.02.85,5.87,1.47,1.52.51,2.96.99,4.29,1.15,2.92.34,4.95,2.68,6.75,4.74.8.92,2.14,2.46,2.73,2.61,1.94.27,3.79.75,5.57,1.22,1.54.4,2.99.78,4.44,1.01l1.98.31c2.72.42,5.41.84,8.13,1.32,1.98.35,3.79.97,5.55,1.56,1.45.49,2.83.96,4.2,1.24.65-.16,2.36-1.53,3.39-2.35,2.29-1.84,4.67-3.74,7.36-3.74.39,0,.78.04,1.15.12,2.02.44,3.85,1.25,5.61,2.02,1.47.65,2.86,1.26,4.2,1.58,2.52.6,4.37,2.41,6.01,4,1.04,1.01,2.21,2.16,3.04,2.37h0c.79,0,2.32-.75,3.54-1.35,2-.98,4.06-1.99,6.26-1.99.6,0,1.19.08,1.74.23,2.6.73,4.35,2.84,5.9,4.69.9,1.08,2.02,2.43,2.74,2.65,2.06.62,3.78,1.68,5.46,2.7,1.34.82,2.61,1.6,3.85,2,2.04.66,3.74,1.74,5.38,2.78,1.32.84,2.58,1.63,3.81,2.06,2.39.83,4.71,1.69,7.06,2.57l2.56.95c.07.03.24.07.56.07.84,0,2.03-.3,3.17-.58,1.52-.38,3.08-.77,4.69-.77,1.04,0,2,.17,2.86.51.43.17,1.03.25,1.86.25.7,0,1.42-.05,2.13-.1.86-.06,1.73-.12,2.57-.12,1.71,0,3.08.24,4.3.74,3.03,1.26,3.95,4.76,4.85,8.16.34,1.27.89,3.35,1.36,4,.14.04.37.07.71.07.81,0,1.82-.18,2.88-.36,1.29-.23,2.62-.46,3.97-.46s2.5.23,3.53.71c2.41,1.11,3.82,3.35,5.07,5.32.78,1.22,1.65,2.61,2.37,2.96,1.76.86,3.38,1.84,4.95,2.78,1.29.78,2.52,1.52,3.79,2.18.88-.04,2.65-.81,3.96-1.38,2.16-.93,4.38-1.9,6.5-1.9,1.02,0,1.94.22,2.75.66,2.75,1.47,3.57,4.8,4.31,7.74.31,1.24.83,3.32,1.28,3.79.73.4,2.27.49,3.76.57,2.15.12,4.59.27,6.73,1.52,1.28.75,2.65,1.4,4.11,2.09,1.68.79,3.41,1.62,5.08,2.64.7.43,2.37.45,3.84.46,2.33.02,4.97.05,7.19,1.47,2.46,1.58,3.28,4.56,4,7.18.33,1.18.87,3.17,1.34,3.55.9.6,2.34.92,3.87,1.25,1.99.44,4.25.94,6.18,2.28.92.64,2.36,1.01,3.89,1.41,1.97.51,4.2,1.08,6.08,2.45,2.09,1.52,3.11,3.9,4.02,6,.57,1.34,1.23,2.85,1.91,3.37,2.03,1.54,3.03,3.84,3.92,5.87.57,1.3,1.16,2.65,1.82,3.26.08.01.23.03.47.03.94,0,2.3-.27,3.62-.53,1.61-.32,3.28-.65,4.84-.65,1.81,0,3.23.44,4.34,1.36,2.04,1.68,2.86,4.22,3.59,6.46.45,1.4.96,2.99,1.57,3.51,2.04,1.74,2.76,4.33,3.39,6.62.35,1.27.78,2.83,1.32,3.42.12.03.39.08.91.08.89,0,1.98-.14,3.14-.28,1.3-.16,2.65-.33,3.93-.33,2.22,0,3.88.54,5.09,1.65,2.37,2.19,2.12,5.7,1.88,9.1-.09,1.29-.24,3.42,0,4.14.74.62,2.12,1.07,3.46,1.51,2.03.67,4.34,1.42,6.09,3.17.99.99,2.22,1.86,3.52,2.79,1.54,1.1,3.14,2.23,4.56,3.71.53.55,2.24.96,3.6,1.28,2.33.55,4.97,1.18,6.79,3.15,1.68,1.82,2.36,4.18,2.95,6.26.42,1.46.85,2.96,1.5,3.69,1.32,1.48,2.4,3.07,3.45,4.61.91,1.33,1.76,2.59,2.72,3.7.59.69,2.05,1.28,3.46,1.84,2.07.82,4.41,1.76,6.02,3.72,1.35,1.65,2.22,3.49,3.06,5.27.68,1.45,1.33,2.82,2.14,3.85.84,1.06,2,2.04,3.22,3.07,1.49,1.25,3.03,2.55,4.3,4.22,1.36,1.8,2.06,3.91,2.68,5.78.5,1.5.97,2.92,1.67,3.89.64.87,1.9,1.67,3.24,2.51,1.75,1.1,3.73,2.35,5.09,4.29,1.21,1.73,1.96,3.6,2.68,5.42.6,1.49,1.16,2.9,1.91,4.02,1.49,2.23,1.48,4.93,1.48,7.32,0,1.4,0,3.14.41,3.79.64,1,1.78,1.93,2.99,2.92,1.52,1.24,3.24,2.65,4.43,4.58,1.2,1.95,1.64,4.15,2.04,6.09.31,1.53.61,2.98,1.2,3.98.37.46,2.33,1.09,3.5,1.46,2.64.84,5.64,1.8,7.09,4.38,1.61,2.87.12,6.23-1.31,9.47-.54,1.23-1.44,3.24-1.47,4.05.59,1.02,1.57,2.01,2.59,3.06,1.34,1.36,2.85,2.91,3.85,4.89.37.72,1.77,1.58,3.01,2.34,1.99,1.22,4.24,2.6,5.4,4.98.46.95,1.58,1.94,2.77,2.98,1.57,1.38,3.35,2.95,4.35,5.13,1.39,3.02-.45,6.29-2.24,9.46-.67,1.19-1.77,3.14-1.9,3.96.48.92,1.45,1.87,2.48,2.88,1.46,1.43,3.11,3.05,4.02,5.24.87,2.09,1,4.29,1.12,6.23.09,1.49.17,2.9.56,3.99.55.51,2.56,1.2,3.78,1.62,3.18,1.1,6.47,2.24,7.58,5.25,1.09,2.95-.6,6.03-2.08,8.74-.61,1.11-1.62,2.96-1.66,3.67.47,1.31,1.14,2.61,1.84,3.99.85,1.66,1.74,3.37,2.36,5.3.41,1.27,1.16,2.55,1.95,3.92.97,1.67,1.98,3.4,2.59,5.43.18.59,1.84,1.78,2.84,2.49,2.11,1.5,4.49,3.2,5.26,5.93.81,2.88-.73,5.71-2.08,8.2-.59,1.09-1.59,2.92-1.54,3.54.52,1.98.58,3.96.64,5.87.05,1.58.1,3.07.41,4.38.19.79,1.34,1.95,2.36,2.98,1.64,1.65,3.49,3.52,4.06,6.1.25,1.16,1,2.45,1.79,3.81.99,1.7,2.11,3.63,2.54,5.85.56,2.82-.9,5.42-2.18,7.73-.56,1-1.6,2.87-1.5,3.46.11.64,1.52,1.97,2.44,2.85,1.83,1.74,3.91,3.7,4.35,6.47.46,2.92-1.29,5.5-2.83,7.79-.69,1.02-1.83,2.72-1.83,3.33.16,1.13.81,2.45,1.49,3.84.87,1.76,1.85,3.75,2.12,6.02.27,2.33-.34,4.53-.88,6.47-.42,1.5-.81,2.91-.7,4.01.08.78,1.08,2.07,1.97,3.22,1.44,1.86,3.08,3.97,3.29,6.63.21,2.69-1.15,5.03-2.36,7.1-.7,1.2-1.57,2.7-1.53,3.46.04.58,1.46,2.15,2.23,2.99,1.76,1.94,3.76,4.14,3.87,7.01.04,1.16.58,2.55,1.14,4.03.71,1.86,1.52,3.97,1.56,6.26.05,2.87-1.84,5.19-3.52,7.23-.73.89-2.09,2.55-2.1,3.15,0,1.23.42,2.65.87,4.16.55,1.84,1.17,3.93,1.13,6.16-.04,2.05-.44,3.97-.82,5.83-.32,1.56-.63,3.04-.68,4.43-.04,1.07.47,2.46,1.02,3.93.72,1.94,1.53,4.14,1.39,6.51-.14,2.41-1.24,4.51-2.22,6.36-.73,1.38-1.41,2.69-1.49,3.73,0,.6,1.26,2.34,1.93,3.27,1.58,2.18,3.37,4.66,3.09,7.55-.26,2.64-1.92,4.74-3.39,6.59-.91,1.15-1.95,2.46-2.04,3.25-.24,2.08-.89,3.96-1.51,5.78-.51,1.5-1,2.92-1.18,4.27-.29,2.12-1.05,3.99-1.79,5.8-.59,1.46-1.15,2.83-1.36,4.12-.31,1.98-.88,3.81-1.43,5.58-.47,1.52-.92,2.95-1.17,4.37-.15.83.42,2.37.92,3.72.79,2.14,1.69,4.57,1.18,7.13-.19.96.2,2.48.57,3.95.53,2.09,1.14,4.46.61,6.87-.54,2.48-2.21,4.38-3.67,6.06-1,1.14-2.03,2.32-2.24,3.2-.58,2.45-2.22,4.3-3.67,5.94-.99,1.12-2.01,2.27-2.25,3.18-.5,1.91-1.18,3.68-1.85,5.39-.57,1.48-1.11,2.88-1.51,4.3-.07.58.84,2.42,1.39,3.51,1.24,2.48,2.65,5.3,1.79,8.14-.88,2.9-3.76,4.43-6.3,5.77-1.09.58-2.92,1.54-3.23,2.09-.28.87-.09,2.33.11,3.87.28,2.11.59,4.51-.22,6.84-.21.6.43,2.54.81,3.69.8,2.44,1.71,5.2.74,7.84-1.02,2.77-3.8,4.19-6.24,5.44-1.09.56-2.92,1.5-3.21,2.04-.28.73,0,2.36.26,3.8.41,2.3.88,4.91-.14,7.35-.84,2.02-2.12,3.63-3.36,5.2-.99,1.24-1.92,2.41-2.42,3.57-.48,1.09-.62,2.57-.78,4.14-.19,1.96-.42,4.18-1.36,6.23-1.15,2.48-3.55,3.85-5.67,5.06-1.16.66-2.75,1.57-3.06,2.22-.22.56.31,2.62.59,3.73.67,2.61,1.42,5.56.1,8.15-1.17,2.3-3.35,3.68-5.26,4.91-1.22.78-2.61,1.67-3.02,2.43-.7,1.31-1.34,2.65-2.02,4.07-.81,1.7-1.64,3.45-2.6,5.16-.53.94-.72,2.42-.92,3.98-.26,2.04-.56,4.36-1.76,6.41-.99,1.69-2.12,3.26-3.22,4.77-.94,1.31-1.84,2.54-2.62,3.81-1.61,2.62-4.88,3.3-7.77,3.9-1.23.26-3.29.68-3.75,1.12-.73,1.15-1.39,2.5-2.09,3.92-.81,1.65-1.66,3.36-2.76,5.01-.8,1.19-1.45,2.54-2.14,3.97-.81,1.67-1.64,3.41-2.8,5.06-.65.94-1.04,2.36-1.45,3.86-.52,1.92-1.12,4.1-2.48,5.96-1.49,2.04-3.73,3.11-5.71,4.05-1.3.62-2.64,1.26-3.23,1.96-.17.7.22,2.75.46,3.99.59,3.05,1.25,6.51-.7,8.99-1.22,1.54-2.56,2.94-3.86,4.29-1.12,1.17-2.18,2.27-3.12,3.42-1.99,2.42-5.46,2.55-8.52,2.66-1.29.05-3.44.13-4,.48-.72.87-1.37,2.2-2.06,3.6-.82,1.68-1.75,3.59-3.19,5.21-.92,1.03-1.81,2.07-2.7,3.11-1.3,1.52-2.65,3.09-4.06,4.62-.74.8-1.28,2.18-1.86,3.63-.74,1.89-1.59,4.03-3.22,5.73-.81.85-1.46,2.19-2.14,3.61-.85,1.78-1.82,3.8-3.43,5.41-1.82,1.82-4.3,2.47-6.49,3.05-1.47.39-2.99.78-3.62,1.39-1.53,1.48-3.11,2.89-4.68,4.31-.97.87-1.94,1.75-2.9,2.64-.99.92-1.87,2.14-2.8,3.42-1.12,1.56-2.29,3.18-3.85,4.57-1.93,1.72-4.45,2.21-6.66,2.64-1.42.28-2.88.56-3.58,1.08-.32.64-.38,2.73-.41,3.99-.08,3.1-.18,6.61-2.62,8.61-1.2.99-2.79,1.47-4.85,1.47-1.26,0-2.56-.17-3.81-.33-1.11-.14-2.15-.28-3-.28-.71,0-.94.1-.95.1-1.08.87-2.19,1.87-3.37,2.93-1.37,1.24-2.78,2.52-4.34,3.69-1.75,1.33-3.76,2.08-5.53,2.74-1.46.54-2.84,1.06-3.85,1.8-.82.6-1.55,1.87-2.32,3.21-1.04,1.82-2.23,3.87-4.22,5.27-1.11.77-2.14,1.86-3.24,3.01-1.33,1.39-2.7,2.83-4.44,4-1.19.8-2.37,1.63-3.54,2.46-1.6,1.13-3.25,2.3-4.95,3.39-1.65,1.06-3.36,1.94-5.01,2.79-1.42.73-2.76,1.42-4.03,2.2-2.1,1.29-4.52,1.5-6.65,1.68-1.48.13-3.02.26-3.86.76-.35.39-.83,2.47-1.12,3.72-.68,2.94-1.45,6.27-4.16,7.79-1.06.6-2.29.88-3.74.88s-2.89-.28-4.29-.56c-1.11-.22-2.26-.44-3.09-.44-.5,0-.66.08-.66.08-.89.48-1.79,1.65-2.75,2.89-1.29,1.67-2.75,3.57-4.92,4.68-1.14.58-2.47.87-4.05.87-1.16,0-2.3-.14-3.4-.28-.95-.12-1.84-.24-2.6-.24-.68,0-1.02.09-1.18.17-.78.38-1.68,1.66-2.54,2.89-1.29,1.85-2.75,3.94-5.09,5.02-1.03.48-2.09,1.52-3.21,2.62-1.43,1.41-3.06,3.01-5.18,3.93-.86.38-1.84.57-2.9.57-1.72,0-3.41-.48-5.05-.95-1.22-.35-2.49-.71-3.33-.71-.27,0-.37.04-.38.04-.81.33-1.78,1.56-2.71,2.74-1.4,1.77-2.99,3.77-5.39,4.71-1.3.51-2.61,1.29-3.99,2.11-1.64.98-3.33,1.99-5.25,2.69-.83.31-1.76.46-2.75.46-1.63,0-3.21-.4-4.74-.79-1.15-.29-2.35-.6-3.2-.6-.3,0-.47.04-.56.07-1.41.49-2.78,1.09-4.24,1.72-1.69.74-3.44,1.5-5.31,2.11-1.08.35-2.25,1.25-3.48,2.21-1.58,1.23-3.38,2.62-5.6,3.29-1.08.33-2.28.48-3.66.48-.97,0-1.92-.07-2.83-.14-.79-.06-1.57-.12-2.34-.12s-1.31.06-1.78.2c-1.14.32-2.37,1.14-3.67,2.01-1.63,1.09-3.48,2.32-5.67,2.89-1.04.27-2.19.4-3.52.4-.92,0-1.86-.06-2.8-.13-.79-.06-1.58-.11-2.36-.11s-1.35.06-1.85.18c-.9.22-2.09,1.23-3.23,2.2-1.67,1.43-3.57,3.04-6.03,3.58-.47.1-.96.16-1.46.16-2.19,0-4.27-.99-6.11-1.86-1.24-.59-2.65-1.26-3.43-1.26-.77.14-2.07,1.56-2.92,2.5-1.7,1.86-3.62,3.96-6.37,4.45-2.18.39-4.39.72-6.6,1.04-1.21.18-2.42.36-3.63.55-1.19.19-2.54.84-3.97,1.53-1.76.86-3.76,1.82-5.98,2.13-.91.12-1.9.19-3.03.19-.95,0-1.91-.04-2.88-.09-.86-.04-1.73-.08-2.59-.08-.74,0-1.38.03-1.96.1-.25.03-.5.04-.75.04-2.51,0-4.74-1.42-6.71-2.67-1.12-.71-2.66-1.69-3.35-1.69-1.4.13-2.84.54-4.36.97-1.83.51-3.72,1.04-5.78,1.2-1.18.09-2.55.65-4,1.25-1.81.74-3.87,1.58-6.13,1.72-1.17.07-2.55.62-4.02,1.2-1.84.74-3.93,1.57-6.21,1.66-.16,0-.32,0-.48,0Z"/>
 <path class="st10" d="M880.05,178.18c-9.97-7.85-29.68-23.33-58.54-37.27-7.32-3.54-21.74-6.67-29.5-10.94-12.5-6.88-15.38-11.1-28.78-18.12-10.7-5.61-28.93-11.76-40.82-16.16-8.7-3.22-19.29-5.99-28.4-8.74-9.59-2.9-22.74-4.52-32.71-6.76-9.17-2.06-17.31-4.06-26.75-5.45-11.02-1.62-19.87-2.77-31.18-3.3-11.23-.53-16.77-.76-28.2-.04-14.35.89-22.2.1-34.9,0-2.06-.02-11.61,2.62-22.59,4.07s-24.46,1.86-26.55,2.53c-47.88,15.37-47.48,8.71-71.66,18.91-26.32,11.11-42.95,23.24-61.41,31.55-18.36,8.26-31.92,13.38-43.76,20.39-20.79,12.33-34.56,17.26-41.3,23.71-2.57,2.46-37.77,30.58-39.49,33.7l-14.32,16.12-33.31,39.11-26.36,37.72-20.55,40.67-16.28,32.14-10.1,37.09-6.29,29.29c-1.9,8.62-5.35,23.13-7.81,32.9l-7.15,32.13-2.81,47.1-.3,37.69,4.79,44.75,4.36,34.23,8.05,42.29,7.72,29.2,10.07,27.52,8.95,18.91,17.9,27.07,25.84,34.9c7.38,8.39,19.13,19.47,22.44,25.04l25.77,26.93,23.91,23.62,29.39,22.53,22.8,16.8,32.82,22.81,39.17,21.9,29.07,13.98c.6.27,14.41,5.1,15.06,5.21l12.33,2.05c8.81,2.76,49.4,16.87,56.89,16.53l51.9,5.26,39.54,3.54,57.95-3.5c6.69-.3,45.6-5.04,51.09-8.88l75.58-21.24,73.7-33.32,67.37-38.63,58.69-48.67,32.18-40.1c5.51-3.85,7.49-13.99,10.07-20.2l35.29-56.51,14.91-39.54,6.85-26.05c1.86-4.48,17.66-71.87,17.58-76.73l3.44-36.93v-25.25l-3.44-33.53-3.93-22.23-5.11-35.3-4.17-27.22c-1.01-7.25-6-28.27-7.83-35.17l-15.32-36.76-5.38-16.32s-43.85-104.39-156.47-193.06Z"/>
 <path class="st1" d="M404.38,1016.13c-80.78-33.68-150.08-94.64-150.08-94.64-18.32-13.96-33.26-31.54-46.4-47.1-4.89-5.79-9.5-11.26-14.09-16.32-20.24-22.36-31.36-40.13-51.75-70.44-4.83-7.18-7.42-16.04-11.7-24.92-6.63-13.77-11.76-33.68-16.06-49.81-6.37-23.91-9.48-48.53-12.48-72.34-.76-6.02-1.52-12.02-2.32-17.97-4.03-29.63-4.51-61.1-1.57-102.03,1.59-22.06,6.22-40.95,10.7-59.22,1.92-7.83,3.73-15.22,5.3-22.81l.86-3.22c.91-4.65,1.32-6.81,2.2-11.76,2.84-15.96,6.73-31.48,12.14-48.36,3.98-12.42,10.79-23.83,17.15-34.93,3.91-6.83,7.59-13.27,10.31-19.18,18.79-40.95,43.25-68.67,69.14-98.01,3.55-4.02,7.15-8.11,10.81-12.3,34.66-39.77,79-59.71,121.89-78.99,5.34-2.4,11.18-5.78,16.53-8.23,6.9-3.16,15.01-7.68,22.34-11.66,16.66-9.04,39.83-21.89,61.67-26.14,7.49-1.46,8.28-2.03,15.4-4.14,4.61-1.37,9.38-2.78,14.65-4.14,8.54-2.22,16.98-1.78,24.43-2.24,3.4-.21,7.69-.48,10.79-.94,11.31-3.93,27.21-3.75,49.92-3.51,9.6.1,42.23.58,54.88,3.24,15.88,3.35,39.31,8.08,58.14,11.89,17.77,3.6,26.85,7.53,29.7,8.17l4.01.91,3.18,1.7c2.18.95,8.73,3.27,13.12,4.82,7.13,2.52,13.86,4.9,18.5,6.95,10.97,4.83,19.36,10.64,26.77,15.76,1.7,1.17,3.42,2.37,5.2,3.56,6.46,4.33,13.66,6.76,22.01,9.56,11.18,3.75,23.85,8.02,36.91,17.37,2.51,1.79,5.1,3.64,7.74,5.52,15.91,11.33,33.83,24.31,48.72,36.8,12.71,10.66,59.68,58.78,59.68,58.78,3.07,5.13,14.02,17.76,20.22,26.81,3.64,4.7,11.44,14.38,19.11,25.55,33.79,49.2,42.18,76.92,42.18,76.92,1.76,4.57,2.79,8.88,4.91,13.44,3.91,8.4,6.4,17.92,9.55,29.88,5.73,21.73,8.74,43.53,11.65,64.61,1.85,13.4,3.59,26.06,5.99,38.67,10.36,54.56,5.1,112.36-14.07,176.71-1.9,6.38-3.53,12.69-5.25,19.37-4.73,18.34-10.59,37.3-21.09,56.67-7.34,13.55-14.48,25.13-21.38,36.33-5.17,8.38-7.9,17.46-13.95,26.47-65.53,97.5-148.5,133.39-243.54,173.43-25.16,10.61-52.87,15.73-77.32,20.25-2.59.48-5.16.96-7.7,1.43-25.12,4.72-53.74,9.62-81.22,9.62-3.6,0-7.18-.08-10.73-.26-18.92-.96-37.85-1.39-56.15-3.67-9.12-1.14-18.66-2.62-27.88-4.28-17.56-3.16-28.99-6.24-41.11-10.32-10.63-3.58-14.47-4.06-29.65-9.53l-12.7-4.4-8.21-3.4"/>
 <g class="st8">
  <path id="impacts-ring" class="st9" d="M701.85,545.23c-.8-5.74-1.55-11.16-2.81-15.89-.21-.79-.7-1.86-1.56-3.68-.78-1.66-1.75-3.73-2.69-6.17-.77-1.99-1.5-4.15-2.27-6.44v-.04c-.8-2.35-2.01-4.55-3.57-6.48-.53-.65-1.04-1.29-1.54-1.92-1.11-1.38-3.48-4.3-3.48-4.3l-10.89-15.12c-2.64-2.65-7.94-7.64-10.99-10.23-3.5-2.96-8.49-6.5-12.89-9.6l-2.22-1.57c-.51-.25-1.9-.71-2.93-1.05-3.78-1.26-8.95-2.99-14.58-6.74-.68-.45-1.34-.9-1.99-1.35-1.19-.81-2.31-1.58-2.84-1.81-.52-.21-2.38-.87-3.49-1.26-1.74-.61-3.15-1.11-4.39-1.59-1.55-.32-3.84-.77-6.46-1.3-5.68-1.14-12.86-2.59-17.9-3.64-3.33-.37-13.55-.57-17.83-.38-3.67.88-6.98,1.08-9.57,1.24-.61.03-1.41.09-1.87.13-1.07.28-2.06.58-3.05.87-2.7.79-5.75,1.69-9.56,2.42-1.84.35-5.18,2.16-8.41,3.9-2.52,1.35-5.37,2.89-8.49,4.31-1.72.79-3.45,1.56-5.17,2.32-10.95,4.89-20.4,9.11-26.39,15.92-1.18,1.35-2.34,2.65-3.48,3.94-7.15,8.05-12.32,13.87-16.09,22.02-1.45,3.15-3.09,5.99-4.53,8.49-.95,1.64-2.37,4.12-2.71,5.04-.94,2.73-1.59,6.35-2.28,10.18l-1.67,6.91c-.5,2.28-1.03,4.42-1.54,6.5-1.15,4.66-2.15,8.68-2.44,12.66-.74,10.19-.65,17.74.27,24.48.26,1.93.51,3.87.76,5.8.83,6.51,1.61,12.66,3,17.84.52,1.94,1.89,4.75,3.33,7.73,1.54,3.18,3.29,6.79,4.77,10.85,1.28,3.5,3.93,6.77,9.02,12.36,1.8,1.97,3.48,3.94,5.1,5.85,3.24,3.81,6.3,7.41,9.06,9.48,6.2,4.66,11.41,8.51,16.91,12.48,1.05.76,2.08,1.53,3.11,2.31,1.75,1.32,3.73,2.82,4.74,3.28,3.14,1.4,5.8,3,7.94,4.29,1.32.8,2.81,1.69,3.53,1.98,1.11.44,2.19.93,3.25,1.4.2.09.39.18.58.27,1.28.33,2.71.77,4.54,1.31,3.38,1.01,10.42,3.13,13.81,3.49,3.11.33,6.17.7,9.2,1.09,5.3.66,10.31,1.27,14.96,1.51,6.41.32,15.73-1.42,20.73-2.35l2.51-.47c6.2-1.14,12.6-2.32,17.1-4.2,24.18-10.11,48.63-21.47,58.86-39.28,1.94-3.37,3.73-6.26,5.47-9.06,1.98-3.2,3.86-6.22,5.69-9.57,1.31-2.4,2.17-5.72,3.26-9.93.56-2.15,1.19-4.58,1.95-7.12,4.37-14.56,5.43-27.2,3.25-38.63-.9-4.68-1.52-9.17-2.12-13.51ZM639.69,580.45c-.08.27-.15.55-.22.82-.5,1.92-1.33,5.12-3.25,8.65-.84,1.53-1.59,2.75-2.2,3.72-.3.49-.61.97-.92,1.52-7.35,12.79-20.69,18.38-27.87,21.38-3.83,1.6-7.48,2.27-9.89,2.72l-.54.1c-3.01.56-6.24,1.06-9.75,1.06-.6,0-1.2-.01-1.82-.05-2.11-.11-3.99-.34-5.66-.55-.61-.07-1.23-.15-1.87-.21-3.18-.35-6.03-1.15-8.46-1.88l-.4-.12c-2.06-.55-3.55-1.21-4.28-1.55-1.96-.8-3.51-1.73-4.4-2.26-2.64-1.28-4.56-2.74-5.64-3.55l-.32-.24c-1.64-1.18-3.11-2.27-4.69-3.46-3.11-2.34-5.23-4.84-6.64-6.49-.23-.27-.45-.53-.67-.78-1.89-2.07-5.38-5.9-7.58-11.76-.08-.17-.16-.34-.25-.51-.73-1.5-1.83-3.77-2.63-6.74-.82-3.06-1.17-5.83-1.46-8.06l-.16-1.23c-.64-4.71-.45-8.99-.25-11.81.24-3.3.9-5.97,1.33-7.73.09-.37.18-.73.26-1.1h.08c.04-.19.07-.39.11-.58.28-1.57.71-3.95,1.63-6.61.91-2.65,2.1-4.71,2.82-5.95l.19-.33c2.6-5.5,5.86-9.17,8.26-11.86l.76-.86c5.4-6.15,11.75-8.99,15.96-10.86l1.12-.5c.11-.06.32-.17.54-.29,1.93-1.04,5.13-2.77,9.48-3.66l.26-.08c.57-.16,1.13-.33,1.74-.48,2.35-.61,4.35-.74,5.36-.8,2.62-.42,4.85-.4,6.16-.38,5.04.05,6.99.46,7.92.66,1.24.26,3.17.65,4.63.94,1.19.24,2.12.43,2.34.48l2.85.62,1.38.74c.71.25,1.5.54,2.34.91,1.6.7,2.89,1.44,3.85,2.05,1.63.59,4.05,1.61,6.61,3.44l.57.4c1.48,1.05,3.32,2.35,5.1,3.86.01.01,4.38,3.75,6.57,6.47l3.07,3.81c3.87,5.29,4.9,7.83,4.9,7.83.54,1.3.97,2.55,1.28,3.47l.13.39c.47,1.01,1.35,2.88,2.02,5.39.75,2.82,1.09,5.29,1.37,7.27.1.69.18,1.38.31,2.07,1.39,7.25.9,14.64-1.48,22.58Z"/>
  <path id="political-economy-ring" class="st9" d="M827.25,527.35c-1.62-11.69-3.16-22.74-5.87-32.93,0,0-8.52-43.28-53.38-91.89-4.85-4.99-16.95-16.49-23.96-22.42-7.34-6.22-17.31-13.27-26.11-19.5l-4.65-3.29c-2.08-1.47-4.97-2.48-9.9-4.12-6.79-2.27-15.24-5.09-24.29-11.13-1.24-.83-2.46-1.66-3.67-2.49-3.38-2.32-5.82-4-8.35-5.1-1.24-.54-5.4-2-7.89-2.88-4.02-1.41-6.98-2.46-9.4-3.43-3.22-.66-8.9-1.8-14.44-2.92-11.22-2.25-25.33-5.09-35-7.12-6.41-.93-31.34-1.41-39.93-.85-6.27,1.68-12.19,2.05-17.15,2.35-1.98.13-4.96.31-5.96.54-2.38.61-4.75,1.31-7.27,2.05-4.89,1.43-10.43,3.06-17.08,4.35-6.13,1.18-13.12,4.94-21.2,9.3-4.88,2.63-9.93,5.35-15.49,7.88-3.31,1.51-6.63,2.99-9.94,4.47-23.1,10.31-43.04,19.22-57.13,35.26-2.25,2.57-4.48,5.07-6.67,7.53-14.33,16.13-25.65,28.86-34.03,47.01-2.5,5.43-5.48,10.59-8.11,15.15-2.72,4.71-5.53,9.6-6.61,12.73-2.26,6.56-4.15,14.19-5.61,22.32l-2.64,12.95c-.93,4.18-1.91,8.17-2.87,12.06-2.43,9.82-4.52,18.3-5.19,27.49-1.52,21.03-1.33,36.79.63,51.12.5,3.69.98,7.41,1.45,11.15,1.68,13.23,3.27,25.72,6.27,36.9,1.43,5.34,4.43,11.52,7.6,18.06,2.96,6.1,6.02,12.42,8.6,19.48,3.78,10.34,11.39,19.19,20.94,29.66,3.3,3.61,6.46,7.34,9.53,10.94,6.92,8.15,13.47,15.84,20.35,21.01,12.13,9.12,22.34,16.65,33.11,24.43,1.95,1.41,3.87,2.86,5.79,4.31,4.7,3.56,8.77,6.64,12.48,8.29,5.16,2.31,9.65,5.01,13.61,7.4,3.42,2.05,6.65,4,9.33,5.07,2.13.84,4.04,1.71,5.58,2.42.96.44,2.26,1.03,2.8,1.23,2.41.58,5.35,1.46,9.34,2.66,8.14,2.45,21.76,6.54,29.94,7.4,5.99.63,11.85,1.36,17.51,2.06,10.64,1.32,20.69,2.57,30.36,3.06,13.32.69,29.85-2.15,44.3-4.84l4.8-.89c12.94-2.38,26.32-4.84,36.77-9.22,49.67-20.78,100.05-44.35,122.57-83.57,3.63-6.32,7.05-11.83,10.36-17.16,3.98-6.41,7.73-12.45,11.51-19.38,3.55-6.5,5.56-14.23,7.88-23.17,1.1-4.22,2.23-8.59,3.62-13.22,9.3-30.99,11.5-58.19,6.72-83.16-1.66-8.68-2.84-17.17-3.98-25.38ZM762.64,616.08c-.57,1.89-1.09,3.9-1.65,6.03-1.77,6.81-3.77,14.52-8.27,22.76-2.72,4.99-5.29,9.12-7.77,13.12-1.77,2.86-3.45,5.56-5.15,8.53-21,36.56-64.26,54.65-90.1,65.46-10.12,4.24-20.45,6.14-29.57,7.82l-2.64.48c-9.3,1.73-19.92,3.53-30.62,3.53-1.47,0-2.96-.04-4.43-.11-7.06-.36-13.82-1.19-20.36-2.01-3.05-.37-6.13-.76-9.26-1.09-8.57-.9-18.3-3.82-24.75-5.76-1.28-.39-2.35-.72-3.08-.91l-.14-.03c-3.96-.96-7.03-2.37-9.07-3.3-.39-.18-.79-.37-1.22-.54-4.74-1.89-8.47-4.13-11.47-5.93-1.18-.71-2.65-1.59-3.27-1.87-6.48-2.9-11.38-6.61-15.31-9.58-.85-.64-1.69-1.28-2.55-1.9-6.37-4.6-12.4-9.05-19.53-14.41-7.65-5.75-13.34-12.44-18.35-18.34-1.58-1.86-3.08-3.62-4.47-5.15-7.69-8.43-15.59-17.75-20.35-30.79-.74-2.04-1.96-4.56-3.26-7.22-2.46-5.07-5.25-10.83-7.1-17.72-2.45-9.14-3.63-18.44-4.67-26.65-.26-1.99-.51-3.98-.78-5.94-1.53-11.16-1.73-22.84-.64-37.87.64-8.81,2.46-16.19,4.07-22.7.62-2.52,1.21-4.91,1.69-7.21l1.19-4.39c1.03-5.73,2.19-12.21,4.54-19.03,1.92-5.58,4.67-10.33,7.08-14.53,1.16-2.01,2.25-3.91,2.89-5.29,7.38-15.98,16.91-26.7,26.12-37.07,1.2-1.35,2.42-2.72,3.65-4.12,14.08-16.05,31.58-23.86,47.03-30.76,1.79-.8,3.58-1.6,5.38-2.41,1.89-.86,4.04-2.02,6.32-3.25,6.34-3.41,14.23-7.67,24.01-9.56,1.84-.36,3.63-.88,5.88-1.54,1.8-.52,3.61-1.05,5.54-1.55,4.32-1.12,8.32-1.37,11.24-1.55.67-.04,1.54-.09,2.05-.14,6.2-1.54,13.07-1.47,19.83-1.39,7.08.08,16.58.39,21.66,1.45,5.5,1.15,13.66,2.79,20.07,4.08,5.23,1.05,9.36,1.89,10.31,2.1l3.4.76,2.17,1.16c.85.32,1.96.7,3.09,1.09,2.75.96,5.34,1.88,7.48,2.82,5.03,2.2,8.85,4.82,11.64,6.73.53.36,1.06.73,1.61,1.09.51.34,2.38.97,3.89,1.47,4.37,1.45,10.34,3.45,16.68,7.96l2.5,1.77c5.74,4.06,12.25,8.66,17.85,13.41,4.1,3.47,16.19,14.55,20.07,19.38,0,0,15.67,17.39,29.26,45.75,7.93,16.54,12.56,45.09,12.56,45.09.6,4.37,1.18,8.49,1.92,12.39,4.02,21.04,2.43,43.07-4.86,67.38Z"/>
  <path id="solutions-ring" class="st9" d="M952.77,507.76c-2.42-17.44-4.71-33.9-8.84-49.44-1.44-5.41-3.7-10.24-6.56-16.37-2.09-4.47-4.46-9.54-6.72-15.35-1.92-4.94-3.87-10.73-5.94-16.86-.59-1.76-1.19-3.54-1.79-5.3-2.5-7.34-6.3-14.18-11.19-20.2-2.57-3.17-5.13-6.35-7.54-9.35-4.54-5.64-5.61-9.37-8.39-12.57l-6.7-9.81c-29.66-40.61-61.66-66.72-61.66-66.72-11.09-9.39-25.88-19.85-38.92-29.08l-6.82-4.83c-4.41-3.14-10.03-5.01-17.14-7.39-9.38-3.13-21.05-7.03-33.2-15.12-1.79-1.19-3.52-2.38-5.24-3.56-5.22-3.58-9.33-6.41-13.91-8.41-2.11-.93-7.98-2.99-12.26-4.49-6.28-2.2-10.7-3.77-14.16-5.2-4.65-.96-13.77-2.79-22.66-4.58-16.44-3.31-36.89-7.43-50.94-10.36-9.12-1.52-49.4-2.29-61.94-1.3-8.59,2.41-17.04,2.94-24.04,3.37-3.95.24-8.43.52-10.56,1.07-3.69.95-7.24,1.99-11.01,3.1-7.29,2.14-14.83,4.35-24.11,6.15-10.47,2.02-21.84,8.15-33.88,14.64-7.01,3.77-14.25,7.68-22.08,11.24-4.83,2.2-9.67,4.36-14.49,6.51-33.46,14.94-65.07,29.05-87.14,54.21-3.3,3.76-6.56,7.43-9.77,11.04-21.52,24.22-38.52,43.35-51.42,71.27-3.48,7.53-7.54,14.57-11.47,21.39-4.22,7.32-8.57,14.88-10.47,20.38-3.57,10.35-5.65,21.96-7.85,34.24-1.09,6.1-3.21,12.23-4.57,18.6-1.33,5.99-2.75,11.75-4.13,17.36-3.51,14.21-6.82,27.63-7.86,41.94-2.28,31.52-1.98,55.26,1,76.97.73,5.37,1.42,10.8,2.11,16.24,2.51,19.71,4.87,38.33,9.45,55.38,2.34,8.74,6.93,18.2,11.79,28.21,4.23,8.72,8.6,17.74,12.21,27.62,6.16,16.87,17.94,30.58,32.69,46.76,4.71,5.17,9.29,10.56,13.72,15.76,10.52,12.37,20.44,24.05,31.42,32.29,17.92,13.47,32.93,24.54,48.67,35.91,240.17,165.43,485.64-22.99,520.2-83.16,5.22-9.1,10.19-17.09,14.98-24.81,5.9-9.52,11.48-18.51,17.16-28.9,5.78-10.6,8.87-22.46,12.44-36.2,1.59-6.1,3.22-12.42,5.21-19.03,14.1-46.98,17.4-88.38,10.1-126.59-2.38-12.46-4.09-24.77-5.74-36.68ZM884.99,654.17c-1.11,3.7-2.09,7.46-3.12,11.43-2.91,11.22-6.22,23.93-13.25,36.82-4.64,8.5-9.09,15.67-13.4,22.6-3.27,5.27-6.36,10.24-9.57,15.84-32.01,55.74-93.16,84.86-153.05,109.92-16.41,6.87-33.95,10.09-49.43,12.94l-4.76.88c-15.88,2.95-33.98,6.03-51.68,6.03-2.37,0-4.73-.05-7.08-.17-12-.61-23.81-2.07-35.24-3.49-5.54-.69-11.25-1.4-16.86-1.99-13.72-1.45-30.22-6.41-41.14-9.69-2.44-.73-5.47-1.64-6.4-1.87l-.24-.05c-5.5-1.33-9.92-3.35-13.16-4.83-.96-.44-1.94-.9-2.98-1.31-7.16-2.85-13.17-6.47-18-9.37-2.9-1.75-5.64-3.39-7.71-4.32-9.8-4.38-17.35-10.09-24.02-15.13-1.62-1.23-3.25-2.46-4.89-3.65-11.32-8.18-22.03-16.08-34.73-25.63-12.16-9.15-21.69-20.34-30.09-30.22-2.94-3.46-5.71-6.72-8.41-9.68-13.12-14.39-25.52-29-32.97-49.4-1.63-4.48-4.01-9.37-6.52-14.55-4.07-8.4-8.69-17.92-11.58-28.68-4.08-15.21-6.03-30.56-7.92-45.4-.46-3.63-.92-7.26-1.41-10.84-2.57-18.78-2.89-38.6-1.03-64.24,1.03-14.29,4.11-26.76,6.83-37.76,1.15-4.67,2.24-9.09,3.16-13.53l2.22-8.35c1.72-9.62,3.68-20.53,7.44-31.46,2.91-8.43,7.37-16.19,11.32-23.02,2.28-3.96,4.43-7.69,5.9-10.87,12.15-26.3,27.64-43.73,44.04-62.18,2.16-2.43,4.35-4.9,6.58-7.43,22.72-25.89,50.94-38.49,78.23-50.67,3.25-1.45,6.52-2.91,9.78-4.39,3.92-1.79,8.02-4,12.37-6.34,10.86-5.85,23.16-12.48,38.08-15.37,4.11-.79,7.84-1.89,12.16-3.15,2.91-.85,5.92-1.74,9.31-2.61,6.17-1.59,12.12-1.96,16.89-2.26,1.51-.09,3.57-.22,4.98-.38,8.66-2.61,19.57-2.49,32.98-2.35,7.85.09,27,.47,35.42,2.23,9.79,2.05,24.23,4.96,35.69,7.26,11.21,2.26,16.68,3.36,18.54,3.78l3.78.85,2.7,1.44c1.44.58,4.8,1.75,7.09,2.56,4.56,1.6,8.87,3.11,12.07,4.51,7.58,3.32,13.39,7.3,18.06,10.5,1.01.69,2.04,1.4,3.09,2.1,2.85,1.89,6.31,3.05,11.1,4.65,7.15,2.4,16.06,5.37,25.29,11.93l4.64,3.28c9.95,7.04,21.33,14.92,30.66,23.01,12.85,11.13,38.4,40.15,38.4,40.15,2.02,3.19,5.82,8.83,9.23,13.74,2.84,3,6.45,7.46,12.67,15.19,3.81,4.73,8.13,10.1,11.72,14.35,7.46,14.64,11.13,25.53,11.13,25.53,1.26,3.73,2.45,7.25,3.37,9.64.96,2.46,2.11,4.94,3.34,7.56,2.58,5.5,5.5,11.74,7.66,19.89,3.67,13.83,5.56,27.42,7.39,40.56,1.11,8.03,2.17,15.61,3.59,23.04,6.67,34.86,3.96,71.64-8.28,112.42Z"/>
  <path id="economics-ring" class="st11" d="m765.58 536.31s-4.63-28.55-12.56-45.09c-13.6-28.36-29.26-45.75-29.26-45.75-3.88-4.83-15.97-15.9-20.07-19.38-5.6-4.75-12.11-9.34-17.85-13.41l-2.5-1.77c-6.34-4.51-12.32-6.51-16.68-7.96-1.5-0.51-3.37-1.13-3.89-1.47-0.55-0.36-1.09-0.73-1.61-1.09-2.79-1.91-6.61-4.54-11.64-6.73-2.14-0.94-4.73-1.85-7.48-2.82-1.13-0.39-2.24-0.78-3.09-1.09l-2.17-1.16-3.4-0.76c-0.94-0.21-5.08-1.05-10.31-2.1-6.41-1.29-14.57-2.93-20.07-4.08-5.08-1.06-14.59-1.38-21.66-1.45-6.76-0.08-13.63-0.15-19.83 1.39-0.51 0.05-1.38 0.1-2.05 0.14-2.93 0.18-6.93 0.43-11.24 1.55-1.93 0.5-3.74 1.03-5.54 1.55-2.26 0.66-4.04 1.19-5.88 1.54-9.78 1.89-17.67 6.14-24.01 9.56-2.28 1.23-4.43 2.39-6.32 3.25-1.8 0.81-3.59 1.62-5.38 2.41-15.44 6.9-32.95 14.71-47.03 30.76-1.23 1.41-2.45 2.78-3.65 4.12-9.21 10.37-18.74 21.08-26.12 37.07-0.64 1.38-1.73 3.27-2.89 5.29-2.42 4.2-5.16 8.95-7.08 14.53-2.35 6.81-3.51 13.3-4.54 19.03l-1.19 4.39c-0.48 2.3-1.06 4.68-1.69 7.21-1.61 6.51-3.44 13.89-4.07 22.7-1.09 15.03-0.89 26.71 0.64 37.87 0.27 1.96 0.52 3.95 0.78 5.94 1.04 8.21 2.22 17.51 4.67 26.65 1.85 6.9 4.64 12.65 7.1 17.72 1.3 2.66 2.51 5.18 3.26 7.22 4.76 13.03 12.66 22.35 20.35 30.79 1.39 1.53 2.89 3.29 4.47 5.15 5.02 5.9 10.7 12.58 18.35 18.34 7.13 5.36 13.16 9.81 19.53 14.41 0.86 0.62 1.7 1.26 2.55 1.9 3.93 2.97 8.83 6.68 15.31 9.58 0.62 0.28 2.09 1.16 3.27 1.87 3 1.8 6.73 4.04 11.47 5.93 0.43 0.17 0.82 0.36 1.22 0.54 2.03 0.93 5.11 2.33 9.07 3.3l0.14 0.03c0.73 0.2 1.79 0.52 3.08 0.91 6.44 1.93 16.18 4.86 24.75 5.76 3.12 0.33 6.21 0.72 9.26 1.09 6.54 0.82 13.3 1.65 20.36 2.01 1.48 0.07 2.96 0.11 4.43 0.11 10.7 0 21.33-1.8 30.62-3.53l2.64-0.48c9.12-1.68 19.46-3.58 29.57-7.82 25.84-10.81 69.1-28.9 90.1-65.46 1.7-2.97 3.38-5.67 5.15-8.53 2.48-3.99 5.05-8.13 7.77-13.12 4.5-8.24 6.5-15.95 8.27-22.76 0.55-2.13 1.08-4.14 1.65-6.03 7.29-24.31 8.88-46.34 4.86-67.38-0.75-3.9-1.32-8.02-1.92-12.39zm-64.86 61.06c-0.76 2.54-1.39 4.97-1.95 7.12-1.09 4.21-1.96 7.52-3.26 9.93-1.83 3.36-3.71 6.38-5.69 9.57-1.74 2.8-3.53 5.69-5.47 9.06-10.23 17.81-34.67 29.17-58.86 39.28-4.5 1.89-10.91 3.06-17.1 4.2l-2.51 0.47c-5.01 0.93-14.33 2.67-20.73 2.35-4.65-0.24-9.66-0.85-14.96-1.51-3.03-0.38-6.09-0.76-9.2-1.09-3.39-0.36-10.43-2.47-13.81-3.49-1.83-0.55-3.26-0.98-4.54-1.31-0.19-0.09-0.39-0.18-0.58-0.27-1.06-0.48-2.14-0.96-3.25-1.4-0.71-0.29-2.21-1.19-3.53-1.98-2.14-1.29-4.8-2.89-7.94-4.29-1.01-0.45-2.99-1.95-4.74-3.28-1.03-0.78-2.06-1.56-3.11-2.31-5.5-3.97-10.71-7.82-16.91-12.48-2.76-2.07-5.82-5.67-9.06-9.48-1.62-1.91-3.3-3.88-5.1-5.85-5.09-5.58-7.74-8.86-9.02-12.36-1.48-4.06-3.23-7.67-4.77-10.85-1.44-2.98-2.81-5.79-3.33-7.73-1.39-5.19-2.17-11.34-3-17.84-0.25-1.94-0.49-3.88-0.76-5.8-0.92-6.73-1-14.28-0.27-24.48 0.29-3.98 1.29-8.01 2.44-12.66 0.51-2.08 1.04-4.22 1.54-6.5l1.67-6.91c0.69-3.83 1.34-7.46 2.28-10.18 0.34-0.93 1.77-3.41 2.71-5.04 1.44-2.51 3.08-5.35 4.53-8.49 3.77-8.15 8.94-13.97 16.09-22.02 1.14-1.29 2.31-2.59 3.48-3.94 5.98-6.82 15.43-11.04 26.39-15.92 1.72-0.77 3.45-1.54 5.17-2.32 3.13-1.42 5.98-2.96 8.49-4.31 3.23-1.74 6.57-3.54 8.41-3.9 3.82-0.74 6.87-1.64 9.56-2.42 0.99-0.29 1.98-0.58 3.05-0.87 0.45-0.04 1.25-0.1 1.87-0.13 2.6-0.16 5.9-0.37 9.57-1.24 4.28-0.18 14.5 0.02 17.83 0.38 5.04 1.05 12.21 2.49 17.9 3.64 2.62 0.53 4.91 0.98 6.46 1.3 1.24 0.48 2.66 0.98 4.39 1.59 1.11 0.39 2.97 1.05 3.49 1.26 0.53 0.23 1.65 1 2.84 1.81 0.65 0.45 1.31 0.9 1.99 1.35 5.63 3.75 10.8 5.48 14.58 6.74 1.03 0.34 2.42 0.81 2.93 1.05l2.22 1.57c4.4 3.11 9.38 6.64 12.89 9.6 3.05 2.58 8.35 7.58 10.99 10.23l10.89 15.12s2.37 2.92 3.48 4.3c0.5 0.62 1.02 1.26 1.54 1.92 1.56 1.93 2.77 4.13 3.56 6.48v0.04c0.78 2.29 1.51 4.46 2.28 6.44 0.95 2.44 1.91 4.5 2.69 6.17 0.85 1.82 1.35 2.89 1.56 3.68 1.26 4.73 2.01 10.15 2.81 15.89 0.6 4.34 1.22 8.83 2.12 13.51 2.18 11.43 1.12 24.07-3.25 38.63z"/>
  <path id="science-ring" class="st11" d="M640.86,555.8c-.28-1.98-.62-4.45-1.37-7.27-.67-2.51-1.55-4.38-2.02-5.39l-.13-.39c-.31-.92-.73-2.17-1.28-3.47,0,0-1.03-2.54-4.9-7.83l-3.07-3.81c-2.19-2.72-6.56-6.46-6.57-6.47-1.78-1.51-3.62-2.81-5.1-3.86l-.57-.4c-2.57-1.83-4.98-2.85-6.61-3.44-.97-.61-2.26-1.35-3.85-2.05-.84-.37-1.62-.65-2.34-.91l-1.38-.74-2.85-.62c-.22-.05-1.15-.24-2.34-.48-1.46-.29-3.4-.68-4.63-.94-.93-.2-2.87-.61-7.92-.66-1.31-.02-3.54-.04-6.16.38-1.01.06-3.01.2-5.36.8-.6.16-1.17.32-1.74.48l-.26.08c-4.34.89-7.55,2.62-9.48,3.66-.21.11-.42.23-.54.29l-1.12.5c-4.21,1.88-10.56,4.71-15.96,10.86l-.76.86c-2.39,2.69-5.66,6.36-8.26,11.86l-.19.33c-.71,1.24-1.9,3.3-2.82,5.95-.92,2.67-1.34,5.04-1.63,6.61-.04.2-.07.4-.11.6h-.08c-.08.36-.17.72-.26,1.09-.43,1.76-1.09,4.43-1.33,7.73-.2,2.81-.4,7.1.25,11.81l.16,1.23c.28,2.23.64,5.01,1.46,8.06.8,2.97,1.9,5.24,2.63,6.74.08.17.17.34.25.51,2.21,5.86,5.69,9.69,7.58,11.76.23.25.45.51.67.78,1.4,1.65,3.53,4.15,6.64,6.49,1.58,1.19,3.05,2.28,4.69,3.46l.32.24c1.08.82,3,2.27,5.64,3.55.89.53,2.44,1.46,4.4,2.26.74.34,2.22,1,4.28,1.55l.4.12c2.43.73,5.29,1.54,8.46,1.88.63.06,1.25.14,1.87.21,1.66.21,3.55.44,5.66.55.62.03,1.22.05,1.82.05,3.51,0,6.74-.51,9.75-1.06l.54-.1c2.41-.44,6.06-1.11,9.89-2.72,7.17-3,20.51-8.59,27.87-21.38.31-.55.62-1.04.92-1.52.61-.98,1.36-2.19,2.2-3.72,1.92-3.52,2.75-6.73,3.25-8.65.07-.27.14-.55.22-.82,2.38-7.94,2.87-15.33,1.48-22.58-.13-.69-.22-1.38-.31-2.07Z"/>
  <path id="governance-ring" class="st11" d="M889.68,518.71c-1.82-13.14-3.71-26.73-7.39-40.56-2.17-8.15-5.09-14.39-7.66-19.89-1.22-2.62-2.38-5.1-3.34-7.56-.93-2.39-2.12-5.91-3.37-9.64,0,0-3.68-10.89-11.13-25.53-3.59-4.25-7.91-9.61-11.72-14.35-6.22-7.73-9.83-12.19-12.67-15.19-3.41-4.91-7.21-10.54-9.23-13.74,0,0-25.55-29.02-38.4-40.15-9.34-8.09-20.71-15.96-30.66-23.01l-4.64-3.28c-9.24-6.57-18.14-9.54-25.29-11.93-4.79-1.59-8.26-2.75-11.1-4.65-1.05-.71-2.08-1.41-3.09-2.1-4.66-3.2-10.47-7.19-18.06-10.5-3.2-1.4-7.51-2.91-12.07-4.51-2.29-.81-5.65-1.99-7.09-2.56l-2.7-1.44-3.78-.85c-1.86-.42-7.33-1.53-18.54-3.78-11.46-2.3-25.9-5.21-35.69-7.26-8.42-1.76-27.57-2.14-35.42-2.23-13.41-.14-24.32-.26-32.98,2.35-1.41.16-3.48.29-4.98.38-4.77.3-10.72.67-16.89,2.26-3.39.88-6.4,1.76-9.31,2.61-4.32,1.27-8.05,2.36-12.16,3.15-14.92,2.88-27.22,9.51-38.08,15.37-4.34,2.34-8.44,4.55-12.37,6.34-3.26,1.48-6.52,2.94-9.78,4.39-27.29,12.18-55.52,24.78-78.23,50.67-2.22,2.53-4.42,5-6.58,7.43-16.4,18.45-31.88,35.88-44.04,62.18-1.47,3.18-3.63,6.91-5.9,10.87-3.94,6.84-8.41,14.59-11.32,23.02-3.76,10.93-5.72,21.83-7.44,31.46l-2.22,8.35c-.92,4.44-2.01,8.85-3.16,13.53-2.72,11-5.8,23.47-6.83,37.76-1.86,25.65-1.54,45.47,1.03,64.24.49,3.58.95,7.21,1.41,10.84,1.88,14.84,3.83,30.18,7.92,45.4,2.89,10.76,7.5,20.28,11.58,28.68,2.51,5.18,4.88,10.07,6.52,14.55,7.45,20.4,19.85,35,32.97,49.4,2.7,2.96,5.47,6.22,8.41,9.68,8.4,9.87,17.92,21.07,30.09,30.22,12.7,9.54,23.41,17.45,34.73,25.63,1.65,1.19,3.27,2.42,4.89,3.65,6.66,5.04,14.21,10.76,24.02,15.13,2.08.93,4.81,2.57,7.71,4.32,4.83,2.91,10.84,6.52,18,9.37,1.04.41,2.02.87,2.98,1.31,3.24,1.48,7.66,3.5,13.16,4.83l.24.05c.92.23,3.96,1.14,6.4,1.87,10.92,3.28,27.42,8.24,41.14,9.69,5.61.59,11.32,1.3,16.86,1.99,11.42,1.42,23.24,2.88,35.24,3.49,2.35.12,4.71.17,7.08.17,17.7,0,35.8-3.07,51.68-6.03l4.76-.88c15.48-2.85,33.02-6.07,49.43-12.94,59.89-25.06,121.04-54.18,153.05-109.92,3.22-5.59,6.3-10.57,9.57-15.84,4.3-6.93,8.76-14.1,13.4-22.6,7.03-12.89,10.34-25.6,13.25-36.82,1.03-3.97,2.01-7.73,3.12-11.43,12.24-40.79,14.95-77.56,8.28-112.42-1.42-7.42-2.47-15.01-3.59-23.04ZM824.51,635.89c-1.39,4.63-2.52,8.99-3.62,13.22-2.32,8.94-4.33,16.67-7.88,23.17-3.78,6.93-7.54,12.97-11.51,19.38-3.31,5.33-6.73,10.84-10.36,17.16-22.52,39.22-72.9,62.79-122.57,83.57-10.45,4.38-23.83,6.84-36.77,9.22l-4.8.89c-14.45,2.69-30.98,5.53-44.3,4.84-9.67-.49-19.72-1.73-30.36-3.06-5.66-.7-11.52-1.43-17.51-2.06-8.17-.86-21.8-4.95-29.94-7.4-3.98-1.19-6.93-2.08-9.34-2.66-.54-.2-1.84-.79-2.8-1.23-1.54-.7-3.45-1.58-5.58-2.42-2.68-1.07-5.9-3.01-9.33-5.07-3.96-2.38-8.45-5.09-13.61-7.4-3.71-1.66-7.78-4.73-12.48-8.29-1.92-1.45-3.84-2.9-5.79-4.31-10.77-7.78-20.98-15.32-33.11-24.43-6.88-5.18-13.42-12.87-20.35-21.01-3.06-3.6-6.23-7.32-9.53-10.94-9.55-10.48-17.16-19.32-20.94-29.66-2.58-7.06-5.64-13.38-8.6-19.48-3.17-6.54-6.16-12.71-7.6-18.06-3-11.19-4.59-23.67-6.27-36.9-.48-3.74-.95-7.46-1.45-11.15-1.96-14.33-2.15-30.1-.63-51.12.67-9.19,2.76-17.67,5.19-27.49.96-3.89,1.94-7.88,2.87-12.06l2.64-12.95c1.46-8.12,3.35-15.76,5.61-22.32,1.08-3.14,3.89-8.02,6.61-12.73,2.63-4.56,5.61-9.72,8.11-15.15,8.39-18.15,19.71-30.88,34.03-47.01,2.19-2.46,4.41-4.97,6.67-7.53,14.08-16.04,34.03-24.95,57.13-35.26,3.31-1.48,6.63-2.96,9.94-4.47,5.56-2.53,10.6-5.25,15.49-7.88,8.08-4.36,15.06-8.12,21.2-9.3,6.65-1.29,12.19-2.92,17.08-4.35,2.51-.74,4.89-1.44,7.27-2.05.99-.23,3.98-.41,5.96-.54,4.95-.31,10.88-.67,17.15-2.35,8.58-.56,33.52-.08,39.93.85,9.68,2.02,23.78,4.86,35,7.12,5.55,1.12,11.23,2.26,14.44,2.92,2.41.97,5.38,2.02,9.4,3.43,2.49.88,6.66,2.34,7.89,2.88,2.52,1.1,4.97,2.78,8.35,5.1,1.2.83,2.42,1.66,3.67,2.49,9.06,6.04,17.51,8.86,24.29,11.13,4.93,1.64,7.82,2.65,9.9,4.12l4.65,3.29c8.8,6.23,18.78,13.28,26.11,19.5,7.01,5.93,19.11,17.43,23.96,22.42,44.86,48.61,53.38,91.89,53.38,91.89,2.71,10.2,4.25,21.25,5.87,32.93,1.14,8.21,2.32,16.7,3.98,25.38,4.77,24.97,2.58,52.17-6.72,83.16Z"/>
 </g>
 <g class="st3">
  <path id="energy-ring" class="st11" d="M865.2,240.07c-13.06-10.98-28.78-22.39-42.74-32.36-2.32-1.66-4.59-3.28-6.79-4.85-11.45-8.23-22.57-11.98-32.38-15.28-7.32-2.47-13.64-4.6-19.3-8.41-1.56-1.05-3.07-2.1-4.56-3.13-6.5-4.51-13.86-9.61-23.48-13.86-4.07-1.8-9.98-3.89-16.23-6.11-3.85-1.37-9.6-3.41-11.51-4.24l-2.79-1.5-3.52-.8c-2.51-.57-10.47-4.02-26.06-7.19-16.51-3.36-37.07-7.52-50.99-10.46-11.1-2.34-39.72-1.06-48.14-1.15-19.92-.22-33.86-.37-43.79,3.09-2.72.4-6.48.64-9.46.82-6.53.41-13.93.87-21.43,2.82-4.62,1.2-8.81,2.44-12.85,3.64-6.25,1.85-6.94-.2-13.51,1.08-19.15,3.74-39.48,15.04-54.1,22.99-6.43,3.5-13.54,7.47-19.59,10.25-4.69,2.16-9.81,5.13-14.5,7.24-37.62,16.96-76.51,34.49-106.91,69.48-3.2,3.69-6.37,7.28-9.48,10.82-22.71,25.81-44.17,50.18-60.65,86.2-2.38,5.2-5.61,10.87-9.04,16.87-5.57,9.76-11.55,19.79-15.04,30.72-4.75,14.85-8.16,28.5-10.65,42.53-.77,4.35-1.13,6.25-1.93,10.34l-.76,2.83c-1.38,6.68-2.97,13.18-4.65,20.06-3.93,16.07-8,32.69-9.39,52.09-2.58,36-2.16,63.67,1.38,89.74.71,5.23,1.37,10.5,2.04,15.8,2.64,20.94,5.36,42.59,10.95,63.62,3.77,14.19,8.27,31.7,14.09,43.81,3.75,7.82,6.03,15.61,10.26,21.92,17.89,26.66,27.64,42.29,45.39,61.96,4.03,4.45,8.07,9.26,12.36,14.35,11.53,13.69,24.63,29.14,40.7,41.43,18.83,14.39-1.24,1.14,45.29,37.92,2.38,1.88,6.86,4.58,9.27,6.42,8.9,6.81,19.65,13.81,32.17,19.46,3.77,1.7,7.55,4.44,12.08,7.19,6.79,4.13,15.81,8.46,24.89,12.11,3.62,1.45,5.19,2.89,7.93,3.55l7.2,2.99,11.14,1.32c8.39.93,16.68,3.54,26.01,6.68,10.63,3.58,22.69,7.65,36.06,9.07,8.17.87,16.45,1.91,24.45,2.91,16.05,2.01,32.65,4.09,49.25,4.93,3.12.16,6.25.23,9.41.23,24.1,0,49.21-4.31,71.24-8.46,2.23-.42,4.48-.84,6.76-1.26,21.45-3.98,45.75-8.49,67.82-17.81,83.36-35.22,168.4-76,211.92-152.54,4.71-8.29,9.4-15.92,13.93-23.28,6.05-9.85,12.31-20.03,18.75-31.95,9.21-17.04,13.5-33.72,17.65-49.85,1.51-5.88,2.94-11.43,4.61-17.04,16.82-56.59,20.58-107.43,11.49-155.42-2.1-11.09-3.63-22.22-5.25-34.01-2.55-18.54-5.19-37.71-10.22-56.83-2.77-10.51-6.65-18.89-10.08-26.28-1.86-4.01-3.62-7.8-5.16-11.82,0,0-5.67-24.39-35.3-67.66-6.72-9.82-11.02-18.34-14.21-22.47-5.44-7.95-15.05-19.07-17.74-23.58,0,0-41.2-42.33-52.35-51.7ZM911.74,384.24c4.89,6.02,8.68,12.86,11.19,20.2.6,1.76,1.2,3.54,1.79,5.3,2.07,6.13,4.02,11.92,5.94,16.86,2.26,5.82,4.63,10.89,6.72,15.35,2.86,6.12,5.12,10.95,6.56,16.37,4.13,15.54,6.42,32.01,8.84,49.44,1.65,11.91,3.36,24.21,5.74,36.68,7.3,38.21,4,79.61-10.1,126.59-1.98,6.61-3.62,12.93-5.21,19.03-3.57,13.74-6.65,25.6-12.44,36.2-5.68,10.4-11.26,19.39-17.16,28.9-4.8,7.73-9.76,15.71-14.98,24.81-34.56,60.17-280.02,248.59-520.2,83.16-15.74-11.37-30.75-22.44-48.67-35.91-10.97-8.24-20.9-19.92-31.42-32.29-4.43-5.2-9-10.59-13.72-15.76-14.75-16.18-26.53-29.89-32.69-46.76-3.61-9.88-7.98-18.9-12.21-27.62-4.86-10.01-9.44-19.47-11.79-28.21-4.57-17.05-6.94-35.67-9.45-55.38-.69-5.45-1.38-10.87-2.11-16.24-2.97-21.71-3.28-45.45-1-76.97,1.04-14.31,4.35-27.73,7.86-41.94,1.39-5.6,2.81-11.37,4.13-17.36,1.36-6.38,3.47-12.51,4.57-18.6,2.2-12.28,4.28-23.89,7.85-34.24,1.89-5.51,6.25-13.07,10.47-20.38,3.92-6.81,7.99-13.85,11.47-21.39,12.9-27.92,29.9-47.05,51.42-71.27,3.21-3.61,6.47-7.28,9.77-11.04,22.08-25.16,53.68-39.27,87.14-54.21,4.82-2.15,9.66-4.31,14.49-6.51,7.83-3.57,15.07-7.47,22.08-11.24,12.04-6.49,23.42-12.62,33.88-14.64,9.29-1.8,16.83-4.01,24.11-6.15,3.76-1.11,7.32-2.15,11.01-3.1,2.13-.55,6.61-.83,10.56-1.07,7.01-.44,15.45-.96,24.04-3.37,12.54-.98,52.81-.22,61.94,1.3,14.05,2.93,34.5,7.05,50.94,10.36,8.89,1.79,18.01,3.62,22.66,4.58,3.46,1.42,7.88,2.99,14.16,5.2,4.28,1.5,10.15,3.56,12.26,4.49,4.58,2,8.69,4.83,13.91,8.41,1.71,1.18,3.45,2.37,5.24,3.56,12.15,8.1,23.82,11.99,33.2,15.12,7.11,2.37,12.73,4.25,17.14,7.39l6.82,4.83c13.05,9.23,27.84,19.69,38.92,29.08,0,0,32,26.11,61.66,66.72l6.7,9.81c2.79,3.19,3.85,6.92,8.39,12.57,2.42,3.01,4.97,6.18,7.54,9.35Z"/>
 </g>
 <a href="https://google.com"><path id="you-ring" class="st7" d="M1081.17,540.15c-3.17-16.58-5.44-32.95-7.64-48.79-3.22-23.19-6.27-45.1-11.76-65.77-1.91-7.2-4.92-13.63-8.73-21.77-2.78-5.94-5.94-12.68-8.94-20.42-2.55-6.57-5.14-14.27-7.9-22.42-.79-2.34-1.59-4.7-2.39-7.05-3.33-9.77-8.38-18.86-14.88-26.88-3.42-4.22-6.82-8.44-10.03-12.44-6.04-7.5-7.46-12.47-11.17-16.71l-8.91-13.04c-39.46-54.02-82.03-88.75-82.03-88.75-14.75-12.49-34.42-26.41-51.78-38.69l-9.07-6.43c-5.87-4.17-13.34-6.67-22.8-9.82-12.47-4.16-28-9.34-44.16-20.12-2.38-1.59-4.69-3.17-6.97-4.74-6.94-4.76-12.57-6.6-18.65-9.26-2.81-1.23-10.21-4.32-15.91-6.32-8.36-2.93-14.82-4.82-19.43-6.72-6.24-2.08-19.55-6.57-31.37-8.95-21.87-4.4-46.62-9.44-66.19-12.71-12.14-2.02-65.71-3.05-82.39-1.74-11.43,3.21-22.66,3.91-31.98,4.49-5.26.32-11.21.7-14.05,1.43-4.91,1.27-9.64,2.65-14.64,4.12-9.69,2.84-19.72,5.79-32.08,8.18-13.92,2.69-29.06,10.84-45.07,19.47-9.32,5.02-18.95,10.21-29.37,14.96-6.43,2.93-12.86,5.8-19.27,8.66-44.51,19.87-86.55,38.64-115.92,72.11-4.39,5-8.72,9.88-12.99,14.68-28.63,32.22-53.18,57.67-70.34,94.8-4.63,10.02-10.03,19.39-15.25,28.45-5.61,9.73-10.44,19.79-12.96,27.12-4.75,13.76-9.45,29.21-12.38,45.54-1.46,8.11-4.27,16.26-6.08,24.74-1.76,7.97-2.69,15.63-4.53,23.09-4.67,18.9-9.07,36.76-10.45,55.79-3.04,41.93-2.63,73.5,1.32,102.39.98,7.14,1.89,14.36,2.81,21.6,3.33,26.22,5.48,48.33,11.57,71,3.12,11.63,7.35,31.48,13.8,44.8,5.62,11.6,8.8,22.13,17.08,34.86,13.03,20.02,27.82,40.85,47.45,62.37,6.27,6.88,12.31,13.11,18.25,20,14.03,16.26,27.19,32.05,41.79,43.02,23.83,17.92,43.23,36.48,64.74,50.77,321.06,213.3,646-35.58,691.97-115.62,6.95-12.1,13.55-22.73,19.93-33,7.85-12.66,15.28-24.62,22.83-38.45,7.69-14.11,11.79-29.88,16.54-48.16,2.11-8.12,4.29-16.52,6.93-25.31,18.75-62.49,23.15-117.56,13.43-168.39ZM1004.01,689.83c-1.67,5.61-3.09,11.16-4.61,17.04-4.15,16.13-8.44,32.81-17.65,49.85-6.44,11.92-12.7,22.1-18.75,31.95-4.53,7.37-9.22,14.99-13.93,23.28-43.52,76.53-128.56,117.32-211.92,152.54-22.07,9.33-46.37,13.84-67.82,17.81-2.27.43-4.53.84-6.76,1.26-22.03,4.15-47.14,8.46-71.24,8.46-3.16,0-6.3-.07-9.41-.23-16.6-.84-33.2-2.92-49.25-4.93-8-1-16.28-2.04-24.45-2.91-13.37-1.43-25.43-5.49-36.06-9.07-9.33-3.15-17.62-5.75-26.01-6.68l-11.14-1.32-7.2-2.99c-2.74-.66-4.31-2.1-7.93-3.55-9.08-3.64-18.1-7.98-24.89-12.11-4.54-2.75-8.32-5.49-12.08-7.19-12.52-5.65-23.27-12.65-32.17-19.46-2.41-1.84-6.89-4.54-9.27-6.42-46.53-36.78-26.47-23.53-45.29-37.92-16.07-12.28-29.17-27.74-40.7-41.43-4.29-5.09-8.33-9.9-12.36-14.35-17.76-19.67-27.5-35.3-45.39-61.96-4.24-6.31-6.51-14.11-10.26-21.92-5.81-12.11-10.32-29.62-14.09-43.81-5.59-21.03-8.31-42.68-10.95-63.62-.67-5.3-1.33-10.58-2.04-15.8-3.53-26.06-3.96-53.74-1.38-89.74,1.39-19.4,5.46-36.02,9.39-52.09,1.68-6.88,3.27-13.38,4.65-20.06l.76-2.83c.8-4.09,1.16-5.99,1.93-10.34,2.49-14.03,5.9-27.69,10.65-42.53,3.49-10.93,9.47-20.96,15.04-30.72,3.43-6.01,6.66-11.67,9.04-16.87,16.48-36.02,37.93-60.39,60.65-86.2,3.11-3.54,6.27-7.13,9.48-10.82,30.4-34.98,69.3-52.52,106.91-69.48,4.69-2.11,9.8-5.08,14.5-7.24,6.05-2.78,13.16-6.75,19.59-10.25,14.62-7.95,34.94-19.25,54.09-22.99,6.57-1.28,7.26.77,13.51-1.08,4.05-1.2,8.23-2.44,12.85-3.64,7.49-1.95,14.89-2.41,21.43-2.82,2.99-.19,6.74-.42,9.46-.82,9.92-3.45,23.87-3.3,43.79-3.09,8.42.09,37.05-1.19,48.14,1.15,13.93,2.94,34.48,7.11,50.99,10.46,15.59,3.17,23.55,6.62,26.06,7.19l3.52.8,2.79,1.5c1.91.83,7.66,2.87,11.51,4.24,6.25,2.22,12.15,4.31,16.23,6.11,9.62,4.25,16.98,9.35,23.48,13.86,1.49,1.03,3,2.08,4.56,3.13,5.66,3.81,11.98,5.94,19.3,8.41,9.81,3.3,20.92,7.05,32.38,15.28,2.2,1.58,4.47,3.2,6.79,4.85,13.95,9.97,29.68,21.38,42.74,32.36,11.15,9.38,52.35,51.7,52.35,51.7,2.69,4.51,12.29,15.62,17.74,23.58,3.19,4.13,7.49,12.65,14.21,22.47,29.64,43.27,35.3,67.66,35.3,67.66,1.54,4.02,3.3,7.81,5.16,11.82,3.43,7.39,7.31,15.76,10.08,26.28,5.03,19.11,7.67,38.29,10.22,56.83,1.62,11.79,3.15,22.92,5.25,34.01,9.09,47.99,5.33,98.83-11.49,155.42Z"/></a>
 <g id="impacts-icon">
  <g class="inner">
   <circle class="st4" cx="585.22" cy="475.9" r="21.29"/>
   <path class="st4" d="M565.12,468.87s3.12-3.05,5.38-2.89,3.19,1.15,3.17-2.17c-.02-3.02,2.22-4.4,3.11-4.56,1.21-.22-.25,2.96,1.21,2.89,2.05-.1,2.12-2.31,3.85-2.38,2.39-.1,3.74-.61,4.08-2.59.29-1.69-3.71-2.35-3.71-2.35"/>
   <path class="st4" d="M564.02,474.04s2.63.78,3.16,4.21c.52,3.43,3.67,4.29,3.92,5.86.4,2.58-1.67,4.78-1.14,6.63"/>
   <path class="st4" d="M593.11,456.12s-1,.85-.27,2.31c.73,1.45-.73,2.85-1.76,2.36-1.03-.48-2.79-.6-4,1.06-1.21,1.66-1.24,2.51-1.13,3.91.1,1.39-5.59,1.45-5.89,3.76-.3,2.3,5.19-.73,5.89,0,1.89,1.95,3.14,1.04,5.43.48,2.47-.6,1.1,5.72,6.51,5.55,4.4-.13,2.42,5.65,3.96,5.66,2.19.01,1.32-6,4.66-5.31"/>
   <path class="st4" d="m586.92 474.47c-0.9-0.75-2.01-1.2-3.18-1.19-2.3 0.03-5.59 0.83-6.27 5.02-1.08 6.58 6.36 2.75 7.22 5.61s-0.05 7.92 2.21 8.35 9.92-7.33 9.54-10.46-2.64-0.97-4.1-5.15c-1.3-3.73-3.09-0.22-5.43-2.19z"/>
  </g>
 </g>
 <g id="political-economy-icon">
  <g class="inner">
   <path class="st4" d="M587.9,340.82c1.84-2.43,2.66-3.76,5.64-3.76h4.7c2.36,0,5.64.91,5.64,4.7v3.76c0,2.08-1.85,3.76-3.76,3.76"/>
   <polyline class="st4" points="592.6 348.33 592.6 343.64 591.66 343.64 589.78 344.58"/>
   <line class="st4" x1="600.12" x2="600.12" y1="342.7" y2="352.09"/>
   <path class="st4" d="M567.24,358.86c-2.13,3.26-3.4,7.33-3.48,11.09h42.94c-.23-11.28-9.75-20.84-21.47-20.84-1.35,0-2.68.12-3.96.36"/>
   <path class="st4" d="m572.86 369.95v-1.78c0-1.21 0.63-1.98 1.85-1.98h6.14c1.21 0 2.36-1.19 2.36-2.4v-0.88c0-1.21 0.81-2.36 2.02-2.36s1.74-0.81 1.74-2.02v-0.88c0-1.21-0.52-1.8-1.73-1.8h-3.91"/>
   <path class="st4" d="M601.06,356.79h-6.62c-.97,0-1.84,1.21-1.84,2.18v.88c0,.97.87,1.65,1.84,1.65h1.75c.97,0,2.05.84,2.05,1.81v.1c0,.97-1.08,1.85-2.05,1.85h-4.38c-1.94,0-3.9,1.43-3.9,3.36v1.34"/>
   <path class="st4" d="m578.5 362.43v-19.74h1.02s2.16 1.64 3.68 2.82c2.39 1.84 5.08-0.49 5.08-0.49s-3.48-3.7-5.08-5.15c-1.68-1.52-3.55-2.82-6.58-2.82h-4.7c-2.36 0-5.64 1.31-5.64 5.64v3.76c0 2.08 2.06 3.76 3.76 3.76"/>
   <line class="st4" x1="570.04" x2="570.04" y1="341.76" y2="362.43"/>
   <line class="st4" x1="573.8" x2="573.8" y1="349.27" y2="362.43"/>
   <path class="st4" d="m574.27 326.72c-1.75 0-3.29 1.24-3.29 3.01v1.5c0 1.77 1.54 3.01 3.29 3.01s3.29-1.24 3.29-3.01v-1.5c0-1.77-1.54-3.01-3.29-3.01z"/>
   <path class="st4" d="m596.83 326.72c-1.75 0-3.29 1.24-3.29 3.01v1.5c0 1.77 1.54 3.01 3.29 3.01s3.29-1.24 3.29-3.01v-1.5c0-1.77-1.54-3.01-3.29-3.01z"/>
  </g>
 </g>
 <g id="solutions-icon">
  <g class="inner">
   <path class="st4" d="M586.49,227.97l12.53,12.53c1.21,1.21,3.4.9,5.01-.72l.07-.07c1.61-1.61,1.85-3.73.64-4.94l-5.73-5.73"/>
   <path class="st4" d="M595.44,218.31l.72-.72c.4-.4.4-1.04,0-1.43l-2.15-2.15c-.4-.4-1.04-.4-1.43,0l-1.43,1.43"/>
   <path class="st4" d="M589.8,216.79l1.35-1.35c.4-.4.4-1.04,0-1.43l-2.15-2.15c-.4-.4-1.04-.4-1.43,0l-1.18,1.18"/>
   <path class="st4" d="M590.71,225.08l1.87,1.84c.4.39,1.03.39,1.43,0l5.02-5.02c.4-.4.4-1.04,0-1.43l-2.15-2.15c-.4-.4-1.04-.4-1.43,0l-2.02,2.02"/>
   <path class="st4" d="M584.7,239.07l1.43-1.43c1.23-1.23,3.99.3,5.73-1.43l.48-.48"/>
   <path class="st4" d="m583.27 230.48c3.09-3.09 3.23-8.23 0.72-10.74l2.86 2.86c2.49 2.49 5.84 0.87 6.44-0.72l-7.88-7.88c-0.95-0.95-1.86-1.1-3.37-0.88-1.51 0.23-3.93 0.47-4.77 1.1-0.85 0.62-1.59 3.7-1.59 6.08 0 2.88-0.4 5.27-1 5.88l-1.43 1.43"/>
   <path class="st4" d="M599.02,221.89l2.86,2.86c.4.4.4,1.04,0,1.43l-5.01,5.01c-.4.4-1.04.4-1.43,0l-2.15-2.15c-.4-.39-.4-1.04,0-1.43l.72-.72"/>
   <rect class="st4" transform="translate(1.78 476.7) rotate(-45.01)" x="572.06" y="226.08" width="8.1" height="20.25" rx="1.35" ry="1.35"/>
   <line class="st4" x1="599.74" x2="601.89" y1="235.49" y2="237.64"/>
   <path class="st4" d="M581.69,211.72l-1.91-1.91c.8-2.6.18-5.55-1.88-7.61-2.34-2.34-5.82-2.83-8.64-1.48l5.42,5.42-3.58,3.58-5.42-5.42c-1.35,2.82-.86,6.3,1.48,8.64,1.76,1.76,4.15,2.46,6.44,2.14l1.3,1.3"/>
  </g>
 </g>
 <g id="economics-icon">
  <g class="inner">
   <path class="st6" d="M571.37,401.45l-.75.75c-.83.83-1.08,1.93-.55,2.46l.96.95c.53.53,1.63.28,2.46-.55l.75-.75c.65-.65.97-1.5.78-2.09l-.74-2.38c-.19-.6.05-1.36.85-2.16.8-.8,1.93-1.08,2.46-.55l.96.96c.53.53.28,1.63-.55,2.46l-.75.75"/>
   <line class="st6" x1="578.06" x2="580.31" y1="397.63" y2="395.37"/>
   <line class="st6" x1="570.55" x2="568.29" y1="405.14" y2="407.4"/>
   <path class="st6" d="m579.56 406.64c-4.56 4.57-10.62 5.92-13.52 3.02s-1.56-8.96 3.01-13.53c4.56-4.57 10.62-5.92 13.52-3.02s1.56 8.96-3.01 13.53z"/>
   <path class="st6" d="m566.04 409.65 3.01 3c2.9 2.9 8.96 1.55 13.52-3.02s5.91-10.62 3.01-13.52l-3.01-3"/>
   <path class="st6" d="M598.71,413.4l-.49-.81c-.54-.89-1.44-1.33-2-.99l-1.02.62c-.57.35-.59,1.35-.05,2.23l.49.81c.42.69,1.08,1.15,1.64,1.12l2.21-.14c.55-.03,1.16.33,1.68,1.19.52.86.52,1.89-.05,2.23l-1.03.62c-.57.34-1.46-.1-2-.99l-.49-.8"/>
   <line class="st6" x1="600.59" x2="602.06" y1="419.97" y2="422.39"/>
   <line class="st6" x1="595.7" x2="594.23" y1="411.91" y2="409.5"/>
   <path class="st6" d="m592.51 419.37c-2.97-4.89-2.86-10.4 0.26-12.29 3.11-1.89 8.05 0.54 11.02 5.44s2.86 10.4-0.26 12.29c-3.11 1.89-8.05-0.54-11.02-5.44z"/>
   <path class="st6" d="m592.77 407.08-3.22 1.96c-3.12 1.89-3.23 7.39-0.26 12.29s7.91 7.33 11.02 5.44l3.22-1.96"/>
   <path class="st6" d="M573.78,423.65l-.82.29c-.9.32-1.47,1.05-1.26,1.62l.37,1.04c.21.57,1.1.78,2,.46l.82-.29c.7-.25,1.24-.76,1.31-1.27l.28-2.01c.07-.5.51-.98,1.38-1.29.87-.31,1.8-.12,2,.46l.37,1.04c.21.57-.36,1.3-1.26,1.62l-.82.29"/>
   <line class="st6" x1="580.05" x2="582.5" y1="423.16" y2="422.29"/>
   <line class="st6" x1="571.89" x2="569.44" y1="426.08" y2="426.96"/>
   <path class="st6" d="m578.01 430.34c-4.96 1.77-9.89 0.65-11.02-2.51s1.98-7.15 6.94-8.92 9.89-0.65 11.02 2.51-1.98 7.15-6.94 8.92z"/>
   <path class="st6" d="m566.99 427.83 1.17 3.27c1.13 3.16 6.06 4.28 11.02 2.51s8.07-5.77 6.94-8.92l-1.17-3.27"/>
  </g>
 </g>
 <g id="science-icon">
  <g class="inner">
   <path class="st6" d="M586.19,520.34c-.23-.07-.47-.11-.7-.11-2.02,0-3.8,2.65-4.84,6.69-.4,1.53-.69,3.25-.85,5.1h0c-.09,1.06-.14,2.15-.14,3.28s.05,2.23.14,3.28h0c.16,1.85.45,3.58.85,5.11"/>
   <path class="st6" d="M590.02,525.87c.11.34.2.69.3,1.05.4,1.53.69,3.25.85,5.1.09,1.06.14,2.15.14,3.28s-.05,2.23-.14,3.28c-.16,1.85-.45,3.58-.85,5.1-1.04,4.03-2.82,6.69-4.84,6.69-1.57,0-2.99-1.6-4.04-4.21"/>
   <path class="st6" d="M572.2,542.28c.05.2.13.38.23.56,1.01,1.75,4.19,1.96,8.21.85,1.52-.42,3.16-1.03,4.84-1.82.96-.45,1.94-.96,2.91-1.52.98-.56,1.9-1.15,2.77-1.76,1.52-1.06,2.87-2.18,4-3.28"/>
   <path class="st6" d="M582.57,530.26c.98-.56,1.95-1.07,2.91-1.52h0c1.68-.79,3.32-1.4,4.84-1.82,4.01-1.11,7.2-.9,8.21.85.8,1.39.07,3.49-1.76,5.76"/>
   <path class="st6" d="M574.93,536.21c.27-.3.57-.6.87-.91,1.12-1.11,2.47-2.22,3.99-3.28h0c.87-.61,1.8-1.2,2.77-1.76"/>
   <path class="st6" d="M577.96,526.36c-2.72-.36-4.76.08-5.53,1.41-1.01,1.75.4,4.61,3.37,7.54,1.12,1.11,2.47,2.22,3.99,3.28h0c.87.61,1.8.12,2.77,1.76.98.56,1.95,1.07,2.91,1.52,1.68.79,3.32,1.4,4.84,1.82.33.09.66.18.98.25"/>
   <path class="st6" d="M580.64,526.92c1.52.42,3.16,1.03,4.84,1.82h0c.96.45,1.94.96,2.91,1.52.98.56,1.9,1.15,2.77,1.76,1.52,1.06,2.87,2.18,4,3.28,2.97,2.92,4.38,5.79,3.37,7.54-.12.2-.26.38-.43.54"/>
   <circle class="st6" cx="588.95" cy="523.1" r="1.94"/>
   <circle class="st6" cx="573.03" cy="538.68" r="1.94"/>
   <circle class="st6" cx="594.62" cy="544.22" r="1.94"/>
   <path class="st6" d="M585.29,560.66v-3.7l-.59-.5c-3.07-2.59-7.38-3.1-10.97-1.31h0c-2.1,1.05-4.5,1.33-6.79.79l-2.45-.58v3.35"/>
   <path class="st6" d="M606.15,558.72v-3.35l-2.45.58c-2.29.54-4.69.26-6.79-.79h0c-3.59-1.79-7.9-1.28-10.97,1.31l-.59.5"/>
   <path class="st6" d="M585.22,563.24c1.98-1.19,4.24-1.81,6.54-1.81h16.13v4.86h-16.13c-1.36,0-2.69.29-3.92.84-.76.34-1.58.52-2.41.52h-.42c-.83,0-1.65-.18-2.41-.52-1.23-.55-2.56-.84-3.92-.84h-16.13v-4.86h16.13c2.3,0,4.57.63,6.54,1.81"/>
  </g>
 </g>
 <g id="you-icon">
  <g class="inner">
   <circle class="st4" cx="585.22" cy="100.62" r="16.44"/>
   <path class="st4" d="M582.49,94.35c.84-.37,1.77-.57,2.74-.57,3.78,0,6.85,3.07,6.85,6.85s-3.07,6.85-6.85,6.85c-3.78,0-6.85-3.07-6.85-6.85,0-.97.2-1.9.57-2.74"/>
   <path class="st4" d="M616.73,100.62S605.54,113.68,590.71,116.52c-1.81.35-3.67.54-5.58.54-17.51,0-31.4-16.44-31.4-16.44s13.9-16.44,31.4-16.44,31.6,16.44,31.6,16.44Z"/>
  </g>
 </g>
 <g id="governance-icon">
  <g class="inner">
   <polyline class="st6" points="600.45 273.25 581.16 263.1 561.88 273.25"/>
   <line class="st6" x1="599.44" x2="562.89" y1="277.31" y2="277.31"/>
   <line class="st6" x1="583.2" x2="579.13" y1="292.52" y2="300.66"/>
   <line class="st6" x1="584.2" x2="588.27" y1="292.52" y2="300.66"/>
   <path class="st6" d="M578.12,300.66v.36c0,2.6,2.5,4.71,5.58,4.71s5.58-2.11,5.58-4.71v-.36h-11.17Z"/>
   <path class="st6" d="M581.16,291.02c.11.56,1.76,1.52,3.12,1.52,4.69,0,4.37-3.05,9.06-3.05"/>
   <line class="st6" x1="603.49" x2="607.56" y1="292.52" y2="300.66"/>
   <line class="st6" x1="602.49" x2="598.42" y1="292.52" y2="300.66"/>
   <path class="st6" d="M608.57,300.66v.36c0,2.6-2.5,4.71-5.58,4.71s-5.58-2.11-5.58-4.71v-.36h11.17Z"/>
   <path class="st6" d="M605.53,291.02c-.11.56-1.76,1.52-3.12,1.52-4.69,0-4.37-3.05-9.06-3.05"/>
   <line class="st6" x1="593.35" x2="593.35" y1="287.46" y2="308.78"/>
   <path class="st6" d="m593.35 308.78c-1.02 1.02-5.08 1.02-5.08 1.02"/>
   <path class="st6" d="m593.35 308.78c1.02 1.02 5.08 1.02 5.08 1.02"/>
   <circle class="st6" cx="581.16" cy="271.22" r="3.05"/>
   <line class="st6" x1="562.89" x2="575.07" y1="301.68" y2="301.68"/>
   <path class="st6" d="M574.06,280.36l-.45.91c-.34.69-1.05,1.12-1.82,1.12h-4.6c-.77,0-1.47-.43-1.82-1.12l-.45-.91"/>
   <path class="st6" d="M574.06,298.63l-.45-.91c-.34-.69-1.05-1.12-1.82-1.12h-4.6c-.77,0-1.47.43-1.82,1.12l-.45.91"/>
   <line class="st6" x1="566.95" x2="566.95" y1="296.6" y2="282.39"/>
   <line class="st6" x1="572.03" x2="572.03" y1="282.39" y2="296.6"/>
   <path class="st6" d="M586.24,280.36l-.45.91c-.34.69-1.05,1.12-1.82,1.12h-4.6c-.77,0-1.47-.43-1.82-1.12l-.45-.91"/>
   <line class="st6" x1="579.13" x2="579.13" y1="288.48" y2="282.39"/>
   <line class="st6" x1="584.21" x2="584.21" y1="282.39" y2="288.48"/>
   <path class="st6" d="M598.42,280.36l-.45.91c-.34.69-1.05,1.12-1.82,1.12h-4.6c-.77,0-1.47-.43-1.82-1.12l-.45-.91"/>
   <line class="st6" x1="591.32" x2="591.32" y1="285.43" y2="282.39"/>
   <line class="st6" x1="596.39" x2="596.39" y1="282.39" y2="286.45"/>
  </g>
 </g>
 <g id="energy-icon">
  <g class="inner">
   <polygon class="st6" points="592.65 160.37 586.9 160.37 586.9 150.41 577.8 163.52 583.54 163.52 583.54 173.48"/>
   <path class="st6" d="M598.78,145.58c-8.35-6.93-20.75-6.48-28.58,1.34-6.63,6.63-7.96,16.54-4,24.49.99,2,2.33,3.89,4,5.55,8.3,8.3,21.75,8.3,30.05,0,6.63-6.63,7.96-16.54,4-24.49"/>
   <polyline class="st6" points="599.73 142.73 600.19 146.87 596.06 147.33"/>
  </g>
 </g>
 <g font-family="'Futura Md Bt'" font-size="18.667px" letter-spacing="1.05px" word-spacing="0px">
  <g>
   <text x="584.34583" y="590.75739" fill="#3a1f16" style="font-feature-settings:normal;font-variant-caps:normal;font-variant-ligatures:normal;font-variant-numeric:normal;line-height:1.25;pointer-events:none;" xml:space="preserve"><tspan x="584.87085" y="590.75739" dx="0" fill="#3a1f16" font-family="'Franz Sans'" font-size="18.667px" font-weight="800" text-align="center" text-anchor="middle" id="science-text">SCIENCE</tspan></text>
   <text x="583.96313" y="654.75739" fill="#ffffff" style="font-feature-settings:normal;font-variant-caps:normal;font-variant-ligatures:normal;font-variant-numeric:normal;line-height:1.25;pointer-events:none;" xml:space="preserve"><tspan x="584.48816" y="654.75739" fill="#ffffff" font-family="'Franz Sans'" font-size="18.667px" font-weight="800" text-align="center" text-anchor="middle" id="impacts-text">IMPACTS</tspan></text>
   <text x="583.9632" y="716.75739" fill="#3a1f16" style="font-feature-settings:normal;font-variant-caps:normal;font-variant-ligatures:normal;font-variant-numeric:normal;line-height:1.25;pointer-events:none;" xml:space="preserve"><tspan x="584.48822" y="716.75739" fill="#3a1f16" font-family="'Franz Sans'" font-size="18.667px" font-weight="800" text-align="center" text-anchor="middle" id="economics-text">ECONOMICS</tspan></text>
   <text x="583.72046" y="776.04535" fill="#ffffff" style="font-feature-settings:normal;font-variant-caps:normal;font-variant-ligatures:normal;font-variant-numeric:normal;line-height:1.25;pointer-events:none;" xml:space="preserve"><tspan x="584.24548" y="776.04535" fill="#ffffff" font-family="'Franz Sans'" font-size="18.667px" font-weight="800" text-align="center" text-anchor="middle" id="political-economy-text">POLITICAL ECONOMY</tspan></text>
   <text x="584.23383" y="842.77942" fill="#3a1f16" style="font-feature-settings:normal;font-variant-caps:normal;font-variant-ligatures:normal;font-variant-numeric:normal;line-height:1.25;pointer-events:none;" xml:space="preserve"><tspan x="584.75885" y="842.77942" fill="#3a1f16" font-family="'Franz Sans'" font-size="18.667px" font-weight="800" text-align="center" text-anchor="middle" id="governance-text">GOVERNANCE</tspan></text>
   <text x="584.30847" y="904.61639" fill="#ffffff" style="font-feature-settings:normal;font-variant-caps:normal;font-variant-ligatures:normal;font-variant-numeric:normal;line-height:1.25;pointer-events:none;" xml:space="preserve"><tspan x="584.8335" y="904.61639" fill="#ffffff" font-family="'Franz Sans'" font-size="18.667px" font-weight="800" text-align="center" text-anchor="middle" id="solutions-text">SOLUTIONS</tspan></text>
   <text x="547.8501" y="966.75739" fill="#3a1f16" style="font-feature-settings:normal;font-variant-caps:normal;font-variant-ligatures:normal;font-variant-numeric:normal;line-height:1.25;pointer-events:none;" xml:space="preserve"><tspan x="547.8501" y="966.75739" fill="#3a1f16" font-family="'Franz Sans'" font-size="18.667px" font-weight="800" id="energy-text">ENERGY</tspan></text>
  </g>
  <text x="584.71918" y="1028.754" fill="#ffffff" text-align="center" text-anchor="middle" style="font-feature-settings:normal;font-variant-caps:normal;font-variant-ligatures:normal;font-variant-numeric:normal;line-height:1.25;pointer-events:none;" xml:space="preserve"><tspan x="585.2442" y="1028.754" fill="#ffffff" font-family="'Franz Sans'" font-size="18.667px" font-weight="800" text-align="center" text-anchor="middle" id="you-text">YOU</tspan></text>
 </g>
</svg>
